<svg width="106" height="92" viewBox="0 0 106 92" fill="none" xmlns="http://www.w3.org/2000/svg">
<g clip-path="url(#clip0_441_216)">
<path fill-rule="evenodd" clip-rule="evenodd" d="M38.5707 13.4142L38.0286 14.369L36.9353 13.6166C36.6261 14.0042 35.5689 19.2237 35.1598 20.3282C34.5494 21.9774 32.7002 25.8949 32.5514 26.3776C32.7984 26.3555 32.9824 26.0128 33.2597 25.6619L38.3962 19.9145C39.2839 19.0189 40.5363 17.7744 41.6478 16.9122L45.1511 14.1585C49.4865 10.9241 56.1017 7.65334 62.6949 6.81771C60.6787 7.13434 55.914 9.25688 54.0821 10.2463C50.5367 12.1612 46.5875 14.95 43.5965 17.7344C41.6814 19.5179 35.6597 25.6423 35.1172 27.2597C44.2546 28.2618 57.1295 26.9459 64.6925 21.9925C74.5764 15.5196 72.2481 10.5083 80.979 7.52237C82.1966 7.10578 83.3334 6.94257 84.6609 6.71611C83.4047 6.08939 77.8227 4.83104 76.104 4.62213C75.9755 3.92604 76.4177 3.7253 76.5466 3.17038C75.1923 2.08953 71.2145 1.91449 69.1444 2.14502C68.2227 2.24743 67.5244 2.50122 66.7146 2.63954L66.7241 1.96508L66.7253 1.6762C66.3552 1.96753 62.8197 3.39357 61.7185 3.924L58.8146 5.07341C58.2137 5.31251 58.5307 5.34678 58.0421 5.49204L57.4983 5.69932C56.9575 6.00493 56.8178 5.95474 56.1867 6.18691C55.5766 6.41132 54.9765 6.66021 54.4062 6.94461C52.9246 7.68435 53.6648 7.23145 52.6925 7.65294L49.9797 8.80071C48.1744 9.62165 44.3955 11.0583 43.0126 11.7401C42.7187 11.885 42.5124 11.9902 42.2028 12.1106L39.1625 13.4261C39.0705 13.4701 38.7886 13.5452 38.6245 13.5909L38.5711 13.413L38.5707 13.4142ZM38.5707 13.4142L38.6241 13.5921C38.7886 13.5464 39.07 13.4714 39.1621 13.4273L42.2024 12.1118C42.5119 11.991 42.7183 11.8858 43.0122 11.7413C44.3951 11.0595 48.174 9.62288 49.9792 8.80193L52.6921 7.65416C53.6648 7.23267 52.9246 7.68558 54.4058 6.94583C54.9757 6.66103 55.5758 6.41254 56.1862 6.18813C56.817 5.95596 56.9571 6.00615 57.4979 5.70054L58.0417 5.49327C58.5303 5.34801 58.2128 5.31373 58.8142 5.07463L61.7181 3.92523C62.8193 3.3948 66.3548 1.96834 66.7249 1.67742L66.7237 1.9663L66.8667 1.10741L64.9238 0.770386H61.6584C61.6332 0.785891 61.5921 0.77161 61.5764 0.805884C61.5606 0.840566 61.5151 0.832405 61.4927 0.838526L60.0753 1.05723C55.4941 2.06994 56.7851 2.46124 56.381 1.14536C55.9848 0.939716 54.8791 1.3812 54.3942 1.55461C52.9727 2.06341 51.3141 2.78847 50.2159 3.84158C49.9419 4.10394 49.8387 4.32917 49.5341 4.45729C49.157 4.0203 49.1508 3.39072 48.823 2.89456C47.7898 3.25688 45.4221 5.7748 44.689 6.90258C44.3786 7.38078 44.4594 7.39262 44.149 7.60969C43.7337 7.40527 43.6794 7.16168 43.2347 6.92869C41.8028 7.38609 38.9482 12.0984 38.5707 13.4138V13.4142Z" fill="#9C9DA0"/>
<path fill-rule="evenodd" clip-rule="evenodd" d="M6.35291 17.0224V17.0294C12.0937 17.6279 11.2623 21.2161 16.1423 24.4468C19.8855 26.9248 25.3813 27.4878 30.6956 27.1377C30.6658 26.6057 28.5119 24.3081 28.1978 23.9768C25.9839 21.6364 22.944 19.2914 19.8635 17.9821C19.4047 17.7871 18.028 17.3521 17.764 17.182C18.7781 17.1901 21.232 18.0861 22.0849 18.4925C24.5769 19.6791 26.86 21.2695 28.7544 23.1301C29.3209 23.6871 31.0964 25.4057 31.4105 26.1222C31.6886 26.0634 31.4308 26.2536 31.6534 26.034C31.6592 26.0283 31.6575 25.9953 31.6654 25.9781C31.5178 25.4889 31.2853 25.0707 31.0931 24.6255C30.5162 23.2933 30.2418 21.8914 29.9277 20.4462C29.4411 20.5347 29.7482 20.5514 29.2985 20.6938L29.112 20.3882C28.8543 20.2075 28.5273 20.1589 28.238 20.0381L25.6888 18.945C24.0394 18.1779 21.8516 17.426 20.5361 16.807C19.2526 16.2031 16.5903 15.0594 15.3955 14.6755C15.3064 14.8085 15.2235 14.5453 15.2355 14.9974C13.7808 14.7567 11.6556 14.4364 10.4326 15.2769L10.6311 15.9758C9.29788 16.1872 7.54316 16.6234 6.35291 17.0228V17.0224ZM15.2355 14.997C15.2235 14.5449 15.3064 14.8081 15.3955 14.6751C16.5903 15.059 19.2526 16.2023 20.5361 16.8066C21.852 17.4255 24.0398 18.1775 25.6888 18.9446L28.238 20.0377C28.5273 20.1589 28.8547 20.2075 29.112 20.3878C28.9658 19.6603 27.4734 17.4696 26.775 17.1318C26.4095 17.3129 26.6283 17.277 26.2135 17.4288C25.8902 16.7242 24.7451 15.4026 24 15.1835L23.77 15.8281C23.2934 15.6939 22.6017 14.8848 20.9837 14.3654C20.1623 14.1014 20.4425 14.2311 20.1702 14.6575C19.5995 14.5698 19.1018 14.2707 17.8369 14.1561C16.9562 14.0761 15.9351 14.0842 15.1195 14.2168L15.2351 14.9974L15.2355 14.997Z" fill="#9C9DA0"/>
<path fill-rule="evenodd" clip-rule="evenodd" d="M75.8691 15.8584C88.1654 22.8062 96.4479 35.861 96.4479 50.8203C96.4479 73.0679 78.1294 91.1029 55.5323 91.1029C32.9352 91.1029 14.6163 73.0679 14.6163 50.8203C14.6163 43.0393 16.8593 35.7749 20.7404 29.6157L32.3484 29.3346C26.9814 34.9462 23.6912 42.5044 23.6912 50.8203C23.6912 68.1336 37.947 82.1688 55.5323 82.1688C73.1176 82.1688 87.3734 68.1336 87.3734 50.8203C87.3734 37.755 79.2538 26.558 67.7126 21.8494L75.8691 15.8584Z" fill="#1C3E9C" stroke="#1C3E9C" stroke-width="1.53131" stroke-miterlimit="2.61313"/>
<path fill-rule="evenodd" clip-rule="evenodd" d="M68.8274 88.9269C64.6586 90.3362 60.1868 91.1029 55.5323 91.1029C32.9352 91.1029 14.6163 73.0678 14.6163 50.8203C14.6163 43.0393 16.8593 35.7748 20.7404 29.6157L32.3484 29.3346C26.9814 34.9461 23.6912 42.5044 23.6912 50.8203C23.6912 68.1336 37.947 82.1688 55.5323 82.1688C59.2386 82.1688 62.7961 81.5433 66.1046 80.3972L68.8274 88.9269Z" fill="#FEFEFE"/>
<path d="M27.8128 74.4975C27.5558 74.6897 27.3071 74.8263 27.063 74.9088C26.8198 74.992 26.591 75.0251 26.3743 75.0079C26.1579 74.9924 25.9553 74.9279 25.7675 74.8182C25.579 74.7072 25.4099 74.5566 25.2611 74.3636C25.1119 74.1702 25.0091 73.9683 24.9511 73.7598C24.8926 73.5505 24.8831 73.3399 24.9246 73.129C24.9643 72.9176 25.0576 72.7083 25.2031 72.4982C25.3489 72.2888 25.5495 72.0893 25.8065 71.8975L26.4153 71.4422C26.6789 71.2451 26.935 71.1031 27.1832 71.0158C27.4315 70.9289 27.6677 70.8926 27.8898 70.9048C28.112 70.9187 28.318 70.9803 28.5107 71.0897C28.7017 71.1986 28.8716 71.35 29.0208 71.5438C29.1696 71.7364 29.2724 71.9379 29.3271 72.1477C29.3818 72.359 29.3868 72.5708 29.3412 72.7854C29.2948 73.0013 29.1961 73.2151 29.0445 73.4272C28.8932 73.6402 28.686 73.8446 28.422 74.0421L27.8132 74.4975H27.8128ZM27.8625 73.3073C28.0366 73.1771 28.1762 73.0539 28.2807 72.9372C28.3839 72.8201 28.4572 72.7079 28.4999 72.6014C28.5418 72.4941 28.5534 72.3917 28.5355 72.2933C28.5173 72.1946 28.473 72.0983 28.4021 72.0065C28.3291 71.9118 28.2471 71.8441 28.1551 71.8008C28.0635 71.7572 27.9595 71.7405 27.8443 71.7523C27.7282 71.7629 27.5985 71.8025 27.4568 71.8698C27.3142 71.9379 27.1559 72.0363 26.9818 72.1664L26.3676 72.6255C26.2023 72.7495 26.0696 72.8691 25.9698 72.9821C25.8711 73.0947 25.8027 73.2044 25.7642 73.3089C25.7265 73.4142 25.7182 73.5154 25.7381 73.6137C25.7584 73.7116 25.8044 73.8083 25.8773 73.9026C25.9486 73.9948 26.0294 74.0621 26.1185 74.1062C26.2081 74.1498 26.3084 74.1678 26.4215 74.1592C26.5334 74.1502 26.6586 74.1139 26.7945 74.0499C26.9313 73.9846 27.0829 73.8899 27.2487 73.7663L27.8625 73.3069V73.3073ZM29.7312 76.5539L28.7506 75.5106L27.3739 76.7653L26.7435 76.0945L30.1195 73.0188L31.8485 74.8582L31.2803 75.376L30.1817 74.2074L29.3167 74.9953L30.2973 76.0386L29.7312 76.5543V76.5539ZM62.2391 84.235L61.118 84.4182L61.7455 88.1332L60.8267 88.2838L60.1992 84.5687L59.0952 84.7495L58.9684 83.9979L62.1123 83.483L62.2391 84.235ZM65.9732 85.3085C66.0515 85.6165 66.0817 85.8956 66.0631 86.1486C66.0453 86.4016 65.986 86.6223 65.8853 86.8112C65.7858 87.001 65.6458 87.1593 65.4692 87.2862C65.2918 87.4135 65.0842 87.5073 64.8459 87.5665C64.6063 87.6257 64.378 87.6395 64.16 87.6101C63.9412 87.5812 63.741 87.5069 63.5603 87.3865C63.3788 87.267 63.2196 87.1009 63.0804 86.8867C62.9424 86.6721 62.8346 86.4122 62.7563 86.1045L62.5702 85.3746C62.4894 85.0584 62.4571 84.7707 62.4732 84.512C62.4894 84.2529 62.5483 84.0252 62.6473 83.829C62.7472 83.6335 62.886 83.4707 63.0634 83.3398C63.2408 83.2096 63.4488 83.1154 63.688 83.0562C63.9267 82.997 64.1554 82.9832 64.3726 83.0158C64.5914 83.0493 64.7912 83.1276 64.9735 83.2533C65.1571 83.3802 65.3179 83.5536 65.4568 83.7743C65.5964 83.9946 65.7063 84.2631 65.7867 84.5789L65.9727 85.3089L65.9732 85.3085ZM64.8807 84.796C64.8272 84.5871 64.7672 84.4125 64.6992 84.2717C64.6304 84.1321 64.5545 84.0216 64.4717 83.9416C64.3879 83.8616 64.2972 83.8106 64.1981 83.7882C64.0991 83.7657 63.9917 83.7682 63.8778 83.7963C63.7605 83.8253 63.6652 83.8731 63.5885 83.9387C63.5118 84.0048 63.455 84.0926 63.4207 84.2015C63.3854 84.3109 63.3713 84.4435 63.3784 84.5981C63.3858 84.7536 63.4157 84.936 63.4691 85.1449L63.6569 85.8809C63.7079 86.0796 63.7667 86.2465 63.8334 86.3816C63.8997 86.515 63.9756 86.6203 64.0585 86.6958C64.1422 86.7712 64.2334 86.819 64.3328 86.8394C64.4327 86.8594 64.5409 86.8557 64.6577 86.8267C64.7721 86.7986 64.8666 86.7521 64.9429 86.6884C65.0191 86.6248 65.0751 86.5407 65.1115 86.4354C65.1472 86.3306 65.1621 86.2029 65.1555 86.0548C65.1484 85.9054 65.1194 85.7308 65.0689 85.5321L64.8807 84.796ZM33.8449 76.5421L32.4151 79.6202L35.1885 77.6209L36.1284 78.3757L33.2211 81.8852L32.4992 81.3054L33.2854 80.3563L34.5639 78.9458L31.8531 80.7872L31.3632 80.3938L32.6496 77.4087L31.5033 78.9254L30.7171 79.8744L29.9977 79.2967L32.9049 75.7872L33.8453 76.5417L33.8449 76.5421ZM36.2681 82.6404L35.1839 81.9953L34.4864 82.6629L33.6455 82.1622L37.2553 79.0188L37.983 79.4525L36.84 84.064L35.9912 83.5585L36.2681 82.6404ZM35.7583 81.4461L36.4935 81.8839L36.9734 80.2841L35.7583 81.4461ZM41.3258 82.0875L40.3188 81.5689L38.5454 84.9062L37.7198 84.481L39.4932 81.1438L38.5019 80.6329L38.8608 79.9577L41.6847 81.4123L41.3258 82.0875ZM42.9902 84.6707L41.6591 84.113L41.1812 85.2175L42.7565 85.8781L42.4544 86.5762L40.0249 85.5578L41.8269 81.3915L44.2505 82.4074L43.9472 83.1088L42.3777 82.4507L41.9516 83.4352L43.2832 83.9934L42.9902 84.6712V84.6707ZM44.8154 85.5235L44.3732 85.3934L43.8916 86.9789L43.0022 86.717L44.3206 82.3785L45.74 82.7963C45.9601 82.8612 46.1474 82.9472 46.3028 83.0554C46.4578 83.1631 46.5784 83.2892 46.6646 83.4344C46.7521 83.5801 46.8014 83.7441 46.8159 83.9257C46.8295 84.1073 46.8043 84.3047 46.7392 84.5194C46.6911 84.6773 46.6339 84.814 46.5664 84.9319C46.4984 85.049 46.4222 85.1481 46.3372 85.2305C46.2514 85.313 46.1586 85.3787 46.0579 85.4288C45.9567 85.4803 45.849 85.5166 45.7334 85.5419L45.9659 87.5445L45.953 87.5861L44.9965 87.3045L44.8162 85.5239L44.8154 85.5235ZM44.5949 84.6642L45.1001 84.8131C45.2775 84.8654 45.4288 84.8466 45.5527 84.756C45.6766 84.6663 45.7682 84.5234 45.8274 84.3292C45.8573 84.2297 45.8755 84.1375 45.8801 84.0514C45.8863 83.9649 45.8759 83.8873 45.8519 83.8184C45.8274 83.7506 45.7881 83.6911 45.7321 83.6417C45.6778 83.5911 45.6057 83.5536 45.517 83.5275L44.987 83.3716L44.5941 84.665L44.5949 84.6642ZM47.3803 87.8807L46.4798 87.6599L47.5913 83.2655L48.4923 83.4862L47.3803 87.8807ZM50.4857 87.4677L49.2308 87.2956L48.8578 88.1802L47.8847 88.0467L49.942 83.7568L50.7841 83.8722L51.5819 88.5539L50.5993 88.4193L50.4857 87.4682V87.4677ZM49.5383 86.5685L50.3895 86.6852L50.1898 85.029L49.5387 86.5689L49.5383 86.5685ZM53.0038 87.8517L54.6325 87.9288L54.5952 88.6869L52.0394 88.5657L52.2603 84.0424L53.1878 84.086L53.0038 87.8513V87.8517ZM57.0603 87.4461C57.0595 87.3678 57.0508 87.2968 57.035 87.2356C57.0189 87.1727 56.9882 87.1152 56.9397 87.0605C56.8916 87.0059 56.8228 86.9536 56.735 86.903C56.6471 86.852 56.5298 86.7994 56.3835 86.7431C56.2103 86.6807 56.0441 86.6097 55.887 86.5289C55.7283 86.4481 55.5891 86.3514 55.4689 86.2404C55.3487 86.1294 55.2521 86.0001 55.1792 85.8528C55.1071 85.7051 55.0689 85.5337 55.0665 85.3362C55.064 85.1473 55.0984 84.9751 55.1676 84.8168C55.2364 84.6597 55.3358 84.5251 55.4639 84.4137C55.592 84.3019 55.7436 84.215 55.921 84.1509C56.098 84.0881 56.2948 84.0546 56.5095 84.0518C56.7304 84.0493 56.9306 84.0803 57.1092 84.1481C57.2878 84.2146 57.4416 84.3092 57.568 84.4308C57.6944 84.5536 57.7922 84.6985 57.8627 84.8686C57.9319 85.0396 57.9692 85.2269 57.9716 85.4321L57.0454 85.4439C57.0441 85.3489 57.0334 85.2616 57.0118 85.182C56.9911 85.102 56.9588 85.0343 56.9153 84.9776C56.8701 84.9221 56.8145 84.878 56.7474 84.8462C56.679 84.8152 56.5978 84.8005 56.5029 84.8017C56.4146 84.8029 56.3384 84.8176 56.275 84.845C56.2107 84.8723 56.1585 84.9103 56.1171 84.9576C56.0752 85.0045 56.0437 85.0604 56.0242 85.1253C56.0035 85.1893 55.9948 85.2587 55.9956 85.3305C55.9964 85.4048 56.0139 85.4725 56.0466 85.5317C56.0798 85.5917 56.127 85.6475 56.1879 85.699C56.2488 85.7487 56.3218 85.7969 56.4076 85.8414C56.4934 85.8862 56.5887 85.9291 56.6919 85.9715C56.9086 86.0466 57.0964 86.1286 57.258 86.22C57.4188 86.3102 57.5539 86.4146 57.6633 86.5309C57.7719 86.6484 57.8544 86.7802 57.9091 86.9279C57.9629 87.0748 57.9924 87.2421 57.9944 87.429C57.9973 87.6277 57.9663 87.8052 57.9016 87.9623C57.8382 88.1181 57.745 88.2507 57.6235 88.3597C57.5021 88.4674 57.3529 88.551 57.1792 88.611C57.0052 88.6706 56.8096 88.7016 56.5895 88.7045C56.3922 88.7069 56.1979 88.68 56.006 88.6233C55.8145 88.5661 55.6429 88.478 55.4925 88.3581C55.3412 88.2369 55.2181 88.0843 55.1241 87.899C55.0296 87.7134 54.9815 87.4922 54.9782 87.2356L55.9094 87.2229C55.9115 87.36 55.9272 87.4763 55.9554 87.5706C55.9848 87.6656 56.0267 87.7428 56.0839 87.8015C56.1407 87.859 56.2103 87.9007 56.2924 87.926C56.3748 87.9504 56.471 87.9619 56.58 87.9606C56.6683 87.9594 56.7437 87.9455 56.8054 87.9194C56.8668 87.8921 56.9169 87.8566 56.955 87.8113C56.9944 87.766 57.0205 87.713 57.0371 87.6501C57.0533 87.5881 57.0611 87.52 57.0599 87.4478L57.0603 87.4461ZM21.5821 35.3598L22.1478 34.2439L21.4155 33.6135L21.8544 32.748L25.3282 36.0359L24.9482 36.7854L20.1867 36.0363L20.6298 35.1627L21.5817 35.3598H21.5821ZM22.75 34.7629L22.3662 35.5198L24.0244 35.8617L22.75 34.7629ZM20.0587 36.4378L24.358 38.0479L23.9254 39.1667C23.8313 39.4107 23.7036 39.6175 23.5449 39.7877C23.3853 39.9574 23.2013 40.0851 22.9908 40.1696C22.7819 40.2536 22.5494 40.294 22.2933 40.2879C22.0372 40.2818 21.7653 40.2243 21.476 40.1157L20.8092 39.866C20.5199 39.7579 20.2779 39.6228 20.0831 39.4609C19.8892 39.2997 19.742 39.1189 19.6426 38.917C19.5435 38.7162 19.4921 38.4996 19.4897 38.2682C19.4867 38.0364 19.5336 37.7961 19.6293 37.548L20.0583 36.4378H20.0587ZM23.3041 38.6309L20.4491 37.5619L20.3504 37.8177C20.292 37.9687 20.2638 38.1021 20.2651 38.2184C20.2667 38.3339 20.3003 38.4384 20.3654 38.5322C20.4304 38.626 20.5274 38.7097 20.6555 38.7876C20.7827 38.8635 20.9451 38.939 21.1399 39.0116L21.813 39.2638C22.0094 39.3372 22.1818 39.3874 22.3294 39.4139C22.4773 39.4396 22.6054 39.44 22.7156 39.4123C22.8254 39.3842 22.9199 39.3287 22.9987 39.2434C23.077 39.1593 23.1454 39.0426 23.2022 38.8957L23.3041 38.6309ZM19.6674 41.4855L22.6891 43.0723L22.4205 44.0577L18.3214 41.6238L18.5717 40.7041L23.3555 40.625L23.0886 41.6042L19.6674 41.4855ZM18.4469 45.3348L18.672 44.1074L17.7892 43.7043L17.9637 42.7528L22.2349 44.9488L22.084 45.773L17.3002 46.3695L17.4767 45.4082L18.4465 45.3348H18.4469ZM19.3981 44.4392L19.2455 45.2715L20.9348 45.1414L19.3981 44.4392ZM17.0561 49.9528L17.122 49.0413L20.2273 47.918L17.2181 47.7074L17.284 46.7959L21.8722 47.1174L21.8063 48.029L18.6972 49.1551L21.7098 49.3665L21.6439 50.2747L17.0557 49.9532L17.0561 49.9528ZM18.6438 53.7258C18.1195 53.7107 17.7196 53.5707 17.4465 53.3067C17.173 53.0428 17.0333 52.6678 17.0262 52.181C17.0225 51.9305 17.0615 51.7061 17.1439 51.5074C17.2252 51.3087 17.3483 51.1414 17.5124 51.0047C17.6773 50.8676 17.8808 50.7619 18.1257 50.6872C18.3707 50.6117 18.6525 50.573 18.9728 50.5685L19.7557 50.5579C20.0757 50.5534 20.3596 50.5856 20.607 50.6562C20.8548 50.7264 21.062 50.83 21.2303 50.9663C21.3994 51.1034 21.5266 51.2695 21.6157 51.4653C21.7036 51.6604 21.7487 51.8819 21.7525 52.1292C21.7591 52.6217 21.6248 52.9983 21.3488 53.259C21.072 53.5185 20.672 53.6695 20.1474 53.7119L20.1345 52.7947C20.299 52.7886 20.4362 52.7726 20.5469 52.7465C20.6567 52.7216 20.7446 52.6833 20.8084 52.6323C20.8739 52.5825 20.919 52.5176 20.9451 52.4364C20.9721 52.3565 20.9837 52.2577 20.982 52.1398C20.98 52.0166 20.9584 51.9129 20.9149 51.8277C20.8718 51.742 20.8026 51.673 20.7081 51.6204C20.6136 51.5686 20.4901 51.5298 20.3368 51.5065C20.1834 51.4817 19.9965 51.4719 19.7756 51.4747L18.9865 51.4857C18.771 51.4886 18.5878 51.5016 18.4374 51.5241C18.2857 51.5473 18.1622 51.5849 18.0681 51.6383C17.9728 51.6918 17.9036 51.7607 17.8605 51.846C17.8178 51.9317 17.7963 52.0402 17.7983 52.1708C17.8 52.2822 17.8133 52.3789 17.839 52.4581C17.8638 52.5372 17.9077 52.6025 17.9699 52.6535C18.0308 52.7049 18.1158 52.7429 18.224 52.7677C18.3321 52.7939 18.4681 52.8081 18.6322 52.8122L18.645 53.7262L18.6438 53.7258ZM19.4611 56.4318L19.3106 55.0151L18.098 55.1396L18.2758 56.8162L17.5091 56.8949L17.2351 54.3097L21.8101 53.8396L22.0836 56.4187L21.3136 56.4979L21.1366 54.8279L20.0558 54.9388L20.2058 56.3559L19.4615 56.4322L19.4611 56.4318ZM22.4226 57.9672L19.3525 59.4904L22.7865 59.6364L23.0414 60.8042L18.5439 61.7545L18.3483 60.8576L19.5647 60.6006L21.4578 60.286L18.173 60.0555L18.0404 59.4475L20.9393 57.9084L19.0818 58.3866L17.8655 58.6437L17.6703 57.7501L22.1677 56.7998L22.4222 57.9676L22.4226 57.9672ZM21.5009 63.9554L20.9866 62.6236L19.8469 63.0504L20.4557 64.6262L19.735 64.8959L18.7963 62.4657L23.0952 60.8556L24.0323 63.2797L23.3083 63.5506L22.7019 61.9809L21.6862 62.3612L22.2005 63.6926L21.5009 63.955V63.9554ZM21.193 68.2563L20.8279 67.4162L23.0679 65.0183L20.2941 66.1864L19.929 65.3463L24.1579 63.5653L24.523 64.4054L22.2817 66.8074L25.0584 65.6381L25.4223 66.4753L21.1934 68.2563H21.193ZM26.5301 69.6285L25.9333 68.6758L22.6771 70.6527L22.188 69.8717L25.4443 67.8952L24.857 66.9572L25.516 66.5573L27.1886 69.2283L26.5297 69.6285H26.5301Z" fill="#1C3E9C"/>
<path d="M71.6865 84.1832C71.6521 84.1126 71.6144 84.0514 71.5738 84.0025C71.5328 83.9523 71.4802 83.9123 71.413 83.8825C71.3459 83.8531 71.2617 83.8335 71.1598 83.8237C71.0583 83.814 70.9294 83.814 70.7723 83.8229C70.5883 83.8376 70.4076 83.8413 70.2302 83.8327C70.0516 83.8246 69.8842 83.7944 69.7279 83.743C69.5717 83.6916 69.4287 83.614 69.2998 83.51C69.1713 83.4059 69.064 83.2656 68.9778 83.0873C68.8949 82.9163 68.853 82.7458 68.8485 82.574C68.8443 82.403 68.8775 82.2394 68.9467 82.086C69.0151 81.9313 69.1162 81.7902 69.2501 81.6588C69.3844 81.5286 69.5489 81.4176 69.7424 81.3266C69.9418 81.2328 70.1366 81.1789 70.328 81.1671C70.5187 81.154 70.6981 81.1765 70.8647 81.2348C71.0322 81.294 71.1826 81.3854 71.3185 81.5111C71.454 81.638 71.5676 81.793 71.6567 81.9779L70.8208 82.3704C70.7789 82.2839 70.7321 82.2096 70.6786 82.1468C70.626 82.0819 70.568 82.0337 70.5042 82.0007C70.4395 81.9689 70.3703 81.9517 70.2957 81.9505C70.2207 81.9505 70.1407 81.9705 70.0549 82.0105C69.9753 82.048 69.9123 82.0929 69.8663 82.1439C69.8195 82.1953 69.788 82.2512 69.7706 82.3112C69.7528 82.3712 69.7478 82.4348 69.7578 82.5018C69.7661 82.5687 69.7876 82.6348 69.8191 82.7001C69.8514 82.767 69.8962 82.8216 69.9509 82.8616C70.0068 82.9028 70.0731 82.9338 70.1502 82.9551C70.2273 82.9751 70.3139 82.9885 70.4105 82.9938C70.5075 82.9991 70.6123 82.9991 70.7238 82.9946C70.9526 82.9734 71.1577 82.9706 71.3438 82.9873C71.5282 83.0028 71.6952 83.042 71.844 83.1028C71.9924 83.1648 72.1234 83.2505 72.2361 83.3619C72.3472 83.4733 72.445 83.6132 72.527 83.7817C72.6141 83.9608 72.6609 84.1351 72.6692 84.304C72.6775 84.4721 72.6493 84.6312 72.5855 84.7798C72.5208 84.9275 72.4213 85.065 72.2887 85.1906C72.1561 85.3163 71.9912 85.4257 71.7931 85.5187C71.6148 85.6023 71.4267 85.6578 71.2282 85.6852C71.0301 85.7125 70.8365 85.7031 70.6492 85.6558C70.4602 85.6085 70.2841 85.5207 70.1196 85.391C69.955 85.2612 69.817 85.0801 69.7051 84.8483L70.546 84.4533C70.6057 84.577 70.6691 84.6765 70.735 84.7504C70.8021 84.8246 70.8726 84.8773 70.9497 84.9071C71.0259 84.936 71.1067 84.9454 71.1921 84.9344C71.2771 84.9226 71.3695 84.8936 71.4677 84.8475C71.5477 84.8099 71.6099 84.7663 71.6555 84.7169C71.6994 84.6667 71.7296 84.6137 71.7454 84.557C71.7616 84.4998 71.7632 84.4407 71.7512 84.377C71.7396 84.3142 71.718 84.2489 71.6865 84.1836V84.1832ZM73.7964 79.2343L75.4405 81.8905C75.5798 82.1154 75.6672 82.3259 75.7016 82.5246C75.7368 82.7225 75.7281 82.9065 75.6767 83.0763C75.6253 83.246 75.5358 83.4035 75.4065 83.5455C75.2776 83.6887 75.121 83.8164 74.9341 83.9286C74.7434 84.0429 74.5532 84.1232 74.3646 84.171C74.1761 84.2195 73.9933 84.2257 73.8163 84.193C73.6394 84.16 73.4694 84.0828 73.307 83.9613C73.1437 83.8405 72.9937 83.6671 72.8544 83.4422L71.2104 80.7864L72.0086 80.3074L73.6526 82.9632C73.7314 83.0909 73.8068 83.188 73.8773 83.255C73.9477 83.3219 74.0186 83.3651 74.0886 83.3843C74.1591 83.4039 74.2304 83.4035 74.3025 83.3835C74.3746 83.3627 74.4521 83.3288 74.5329 83.2803C74.6141 83.2317 74.6792 83.1799 74.7318 83.126C74.7828 83.0718 74.8155 83.0097 74.8288 82.94C74.8429 82.8706 74.835 82.7894 74.8081 82.6964C74.7799 82.6042 74.7268 82.494 74.6477 82.3659L73.0036 79.7101L73.7964 79.2343ZM77.6967 80.6448C77.6523 80.5796 77.6055 80.5249 77.5579 80.4824C77.5098 80.4388 77.4518 80.407 77.3809 80.3874C77.31 80.3678 77.2238 80.3613 77.1219 80.3662C77.0199 80.3715 76.8927 80.3906 76.7389 80.4221C76.5591 80.4633 76.3809 80.4935 76.2043 80.511C76.0265 80.529 75.8562 80.5232 75.6941 80.4951C75.5321 80.4669 75.3792 80.411 75.2358 80.327C75.0932 80.2425 74.966 80.1197 74.8541 79.9557C74.7467 79.799 74.6796 79.6362 74.6493 79.4669C74.6199 79.2984 74.6278 79.1315 74.673 78.9695C74.7173 78.8071 74.7961 78.652 74.9088 78.5035C75.0219 78.3554 75.1682 78.2212 75.346 78.1028C75.5292 77.9813 75.714 77.8997 75.9014 77.8597C76.0879 77.8189 76.269 77.8152 76.4426 77.8486C76.6167 77.8829 76.7795 77.9515 76.9329 78.0555C77.0862 78.1612 77.2213 78.2983 77.3378 78.468L76.5698 78.9781C76.5155 78.8989 76.4579 78.832 76.3958 78.7773C76.334 78.721 76.2694 78.6822 76.201 78.6582C76.1326 78.6357 76.0617 78.6292 75.9876 78.6386C75.913 78.6496 75.8371 78.681 75.7584 78.7332C75.685 78.7818 75.6295 78.8357 75.5918 78.8924C75.5532 78.9499 75.5304 79.0099 75.5221 79.0715C75.5139 79.1335 75.5184 79.1972 75.5383 79.262C75.5565 79.3269 75.5876 79.3893 75.6287 79.4489C75.6709 79.5105 75.7231 79.5583 75.7832 79.5897C75.8446 79.6219 75.915 79.6431 75.9946 79.6529C76.0733 79.6619 76.1612 79.6627 76.2578 79.6537C76.3543 79.6448 76.4579 79.6293 76.5678 79.6089C76.7907 79.5546 76.9938 79.522 77.1799 79.5113C77.3647 79.4999 77.5355 79.5142 77.6921 79.553C77.848 79.5929 77.9905 79.6582 78.119 79.7525C78.2454 79.8463 78.3631 79.9708 78.4692 80.1254C78.5819 80.2899 78.6549 80.4551 78.688 80.6216C78.7216 80.7864 78.7174 80.9476 78.6764 81.1043C78.6346 81.2597 78.5566 81.4099 78.4447 81.5539C78.3324 81.6975 78.1861 81.8293 78.0038 81.9501C77.8401 82.0586 77.6623 82.1411 77.4704 82.197C77.2785 82.2529 77.0858 82.2716 76.8935 82.2524C76.6991 82.2329 76.5118 82.1717 76.3299 82.0672C76.1475 81.9628 75.9842 81.8036 75.8379 81.5906L76.6105 81.0782C76.6884 81.1916 76.7663 81.2805 76.8425 81.3442C76.92 81.4082 76.9975 81.4499 77.0784 81.4682C77.1579 81.4858 77.2392 81.4829 77.322 81.4601C77.4045 81.4356 77.4911 81.3936 77.5819 81.3336C77.6552 81.2846 77.7104 81.2328 77.7481 81.1773C77.7841 81.1214 77.8061 81.0643 77.8127 81.0059C77.8206 80.9472 77.8127 80.888 77.7916 80.8268C77.7709 80.766 77.7394 80.7052 77.6988 80.6452L77.6967 80.6448ZM79.4962 75.9232L78.6155 76.6303L81.0325 79.5493L80.3105 80.1287L77.8931 77.2097L77.0253 77.9058L76.5363 77.315L79.0063 75.3324L79.4958 75.9232H79.4962ZM82.8365 76.5152L81.9422 77.399L82.4358 78.2244L81.7428 78.9095L79.4966 74.7122L80.0971 74.1185L84.3766 76.3051L83.6766 76.9971L82.8361 76.5148L82.8365 76.5152ZM81.5368 76.7196L82.1432 76.1203L80.6781 75.2818L81.5368 76.7196ZM85.2402 75.1998L84.6522 75.9069L81.093 73.0385L81.6811 72.3313L85.2402 75.1998ZM87.6945 72.1065L87.1338 72.8349L83.9087 72.1065L86.3128 73.9006L85.7521 74.6289L82.0864 71.8935L82.6471 71.1648L85.8764 71.8923L83.4698 70.0962L84.0284 69.3703L87.6941 72.1057L87.6945 72.1065ZM88.4401 69.101L87.7849 70.1684L88.4633 70.8547L87.9556 71.6826L84.7612 68.1307L85.2013 67.4138L89.8857 68.5375L89.3726 69.3732L88.4401 69.101ZM87.227 69.6037L87.6713 68.8799L86.0459 68.4078L87.227 69.6037ZM89.9855 68.1189L85.8263 66.1857L86.433 64.9204C86.5312 64.7156 86.6423 64.5434 86.7662 64.4026C86.8897 64.2615 87.0248 64.1566 87.1732 64.088C87.3211 64.0195 87.4811 63.9881 87.6523 63.9962C87.8234 64.0028 88.0058 64.0525 88.1997 64.1423C88.295 64.1868 88.3821 64.239 88.4608 64.299C88.5379 64.3594 88.605 64.4283 88.6606 64.5059C88.7174 64.5842 88.76 64.6695 88.7915 64.7629C88.8222 64.8559 88.8367 64.9575 88.8334 65.0665C88.9142 64.9751 89.0025 64.9078 89.1003 64.8633C89.1964 64.8188 89.2972 64.7939 89.4003 64.7866C89.504 64.78 89.6084 64.7882 89.7149 64.8119C89.821 64.8368 89.9246 64.8719 90.0249 64.9184C90.4286 65.1061 90.681 65.3574 90.7825 65.6712C90.8832 65.9854 90.8339 66.3489 90.6354 66.7639L89.9851 68.1193L89.9855 68.1189ZM88.5744 66.4521L89.6851 66.9683L89.9387 66.4391C89.9772 66.3587 89.9967 66.2832 89.9975 66.2138C89.9988 66.1441 89.9835 66.0796 89.952 66.0204C89.9217 65.9617 89.8769 65.9078 89.8206 65.8617C89.7642 65.8148 89.6967 65.7724 89.6183 65.736C89.4418 65.654 89.2855 65.6214 89.1525 65.6381C89.0182 65.6553 88.915 65.7409 88.8413 65.8948L88.5744 66.4513V66.4521ZM87.9631 66.1681L88.1691 65.7381C88.2482 65.5728 88.2636 65.4296 88.2151 65.3097C88.1662 65.1893 88.0584 65.0914 87.891 65.0134C87.7028 64.9261 87.5495 64.9004 87.4314 64.9367C87.3137 64.9735 87.2142 65.0767 87.133 65.2456L86.9229 65.6842L87.9631 66.1677V66.1681ZM91.0515 63.6996L91.6329 62.2001L92.3532 62.4706L91.4402 64.8241L87.1433 63.2087L87.4745 62.3548L91.051 63.6996H91.0515ZM91.146 59.233L90.7883 60.6133L91.9698 60.9099L92.3934 59.2766L93.1402 59.4643L92.4875 61.9835L88.0306 60.8638L88.6817 58.3512L89.4318 58.5397L89.0104 60.1669L90.063 60.4313L90.4211 59.051L91.146 59.2334V59.233ZM92.3814 57.507C92.2484 57.494 92.1306 57.4658 92.0258 57.4226C91.9205 57.3797 91.8256 57.3234 91.7394 57.2545C91.6528 57.1863 91.572 57.1059 91.4966 57.0145C91.4211 56.9227 91.3457 56.8203 91.2703 56.7097C91.0767 56.8052 90.8952 56.8787 90.7261 56.9284C90.5575 56.979 90.3859 56.9958 90.2122 56.979C90.0299 56.9615 89.867 56.9203 89.724 56.8542C89.5823 56.7881 89.4621 56.7032 89.3659 56.5988C89.269 56.4955 89.1985 56.3735 89.1538 56.2352C89.1102 56.0965 89.0957 55.9463 89.1119 55.7835C89.1276 55.6281 89.1703 55.4914 89.2395 55.3722C89.31 55.2535 89.3974 55.1539 89.504 55.0756C89.6101 54.9977 89.7298 54.9405 89.8645 54.9046C89.998 54.8683 90.1368 54.8573 90.2819 54.8712C90.4953 54.8916 90.681 54.9544 90.8372 55.0593C90.9939 55.1637 91.1281 55.3029 91.24 55.4755L91.4091 55.7264L92.2877 55.2266C92.1858 55.1813 92.078 55.1442 91.9653 55.1144C91.8526 55.0842 91.7299 55.0642 91.5998 55.0515L91.6735 54.311C91.9483 54.3375 92.2019 54.3885 92.4361 54.4636C92.6702 54.537 92.8783 54.646 93.0602 54.7892L93.9455 54.2865L93.8468 55.2796L93.5907 55.4249C93.6819 55.5722 93.744 55.724 93.7772 55.8802C93.8104 56.0349 93.8191 56.2009 93.8017 56.376C93.7822 56.5694 93.7329 56.7416 93.6529 56.8909C93.5741 57.0415 93.4718 57.1647 93.3466 57.2614C93.2219 57.3593 93.0764 57.4287 92.9119 57.4711C92.7461 57.514 92.5695 57.5258 92.3818 57.5074L92.3814 57.507ZM93.0702 56.2581C93.0863 56.0944 93.047 55.9361 92.9529 55.7807L91.8604 56.3943L91.8737 56.4135C91.9682 56.4874 92.0606 56.5392 92.151 56.5673C92.2413 56.5963 92.3292 56.6143 92.415 56.6224C92.5032 56.631 92.5857 56.6281 92.6628 56.6134C92.7411 56.5996 92.8087 56.5751 92.8671 56.5424C92.9255 56.5098 92.972 56.4694 93.008 56.4209C93.0432 56.3719 93.064 56.3172 93.0698 56.2581H93.0702ZM90.2736 56.1977C90.3614 56.2062 90.4522 56.1956 90.545 56.1663C90.6379 56.1369 90.7365 56.094 90.8413 56.0402L90.7423 55.8839C90.7058 55.8256 90.6689 55.7794 90.6329 55.7431C90.5964 55.7076 90.5579 55.6795 90.5185 55.6595C90.4791 55.6387 90.4398 55.624 90.3983 55.6146C90.3573 55.6052 90.3133 55.5979 90.2673 55.5934C90.2213 55.5889 90.1733 55.5918 90.1248 55.6011C90.0763 55.6093 90.0336 55.6252 89.9955 55.6472C89.9565 55.6701 89.9246 55.6978 89.8973 55.7337C89.8711 55.7688 89.855 55.8096 89.85 55.8574C89.845 55.9067 89.8525 55.9516 89.8736 55.9908C89.8931 56.03 89.9234 56.0638 89.9619 56.0932C90.0005 56.1214 90.0456 56.145 90.0991 56.1618C90.153 56.1797 90.211 56.1916 90.2736 56.1977ZM93.5538 49.2947C93.6052 49.3429 93.6649 49.4073 93.7324 49.4881C93.7988 49.5705 93.8617 49.6717 93.921 49.7929C93.9794 49.9145 94.0292 50.0581 94.0686 50.2218C94.1096 50.3858 94.1286 50.5747 94.127 50.7881C94.1249 51.0407 94.0826 51.2687 94.001 51.4715C93.9202 51.6739 93.7979 51.8469 93.6338 51.9914C93.4709 52.1358 93.2654 52.2456 93.018 52.3214C92.7693 52.3973 92.4775 52.4345 92.1427 52.432L91.3664 52.4263C91.0307 52.4239 90.7402 52.3835 90.4936 52.3076C90.2462 52.2317 90.0411 52.124 89.8782 51.9848C89.7153 51.8457 89.5939 51.6772 89.5156 51.4781C89.4372 51.2802 89.3991 51.057 89.4008 50.8105C89.4028 50.5535 89.4368 50.3319 89.5035 50.1455C89.5699 49.9594 89.6681 49.8048 89.799 49.6807C89.9296 49.5575 90.09 49.4632 90.281 49.3984C90.4725 49.3331 90.6917 49.2919 90.9408 49.276L90.9342 50.1654C90.7883 50.1761 90.6673 50.1952 90.5703 50.2238C90.4729 50.2503 90.3954 50.2895 90.3378 50.3401C90.2794 50.3907 90.2367 50.4531 90.2114 50.5257C90.1849 50.5988 90.1724 50.6869 90.172 50.7881C90.1708 50.9089 90.1915 51.0133 90.2342 51.1027C90.2769 51.1924 90.3453 51.2671 90.4406 51.3271C90.5359 51.3871 90.6598 51.4315 90.8127 51.4613C90.9644 51.4919 91.1501 51.5074 91.3664 51.5087L92.1493 51.5144C92.3694 51.516 92.5538 51.5013 92.7063 51.4707C92.8584 51.4397 92.9819 51.3916 93.078 51.3267C93.1742 51.2626 93.2451 51.1802 93.289 51.0806C93.3329 50.9823 93.3553 50.8644 93.3561 50.7297C93.3566 50.649 93.3507 50.58 93.3383 50.5237C93.3259 50.4662 93.311 50.4172 93.294 50.3768C93.2757 50.3364 93.2579 50.3021 93.2384 50.2764C93.2202 50.2507 93.2045 50.2283 93.1916 50.2091L92.3486 50.203L92.3437 50.8444L91.6429 50.8395L91.6545 49.2813L93.5534 49.2947H93.5538ZM92.1767 47.4562L92.2318 47.9074L93.9007 47.71L94.0118 48.6174L89.4447 49.158L89.2677 47.7095C89.2404 47.4851 89.2458 47.2815 89.2843 47.0983C89.3228 46.9155 89.3925 46.7564 89.4932 46.6205C89.5939 46.4834 89.7269 46.3737 89.8902 46.288C90.0539 46.2035 90.2479 46.1472 90.4737 46.1203C90.6399 46.1007 90.7904 46.0979 90.9267 46.1117C91.0631 46.1268 91.1862 46.1562 91.2968 46.1994C91.4075 46.2439 91.5061 46.3019 91.5927 46.3729C91.681 46.4439 91.7581 46.5267 91.8273 46.6209L93.6002 45.6123L93.6442 45.607L93.7635 46.583L92.1771 47.4558L92.1767 47.4562ZM91.4638 47.998L91.4008 47.4827C91.3789 47.3011 91.3009 47.1726 91.1671 47.0963C91.0341 47.0204 90.8645 46.9943 90.6602 47.0188C90.5554 47.031 90.4621 47.0518 90.3801 47.0816C90.2968 47.1106 90.2292 47.151 90.1741 47.1999C90.1206 47.2493 90.0813 47.3085 90.0572 47.3786C90.0319 47.448 90.0253 47.528 90.0369 47.6186L90.1028 48.1592L91.4642 47.998H91.4638ZM91.1364 43.2025L91.4087 44.6016L92.6064 44.376L92.2844 42.7202L93.0416 42.5778L93.5385 45.1312L89.0207 45.9832L88.5255 43.4363L89.286 43.2927L89.6067 44.9419L90.6743 44.7408L90.402 43.3416L91.1368 43.2029L91.1364 43.2025ZM90.3747 40.3565L90.758 41.7304L91.9342 41.4125L91.4804 39.7869L92.2239 39.5858L92.923 42.0927L88.4873 43.2919L87.7899 40.7911L88.5367 40.5895L88.9884 42.2086L90.0365 41.9254L89.6536 40.5516L90.3751 40.3565H90.3747ZM90.8152 36.14L91.1675 36.9859L88.8918 39.3504L91.6831 38.223L92.0353 39.0684L87.7799 40.7874L87.4276 39.942L89.705 37.573L86.9108 38.7016L86.5598 37.859L90.8156 36.14H90.8152ZM86.9502 32.4368L84.2419 33.5201L83.7727 32.7424L88.1459 31.123L88.6212 31.9117L86.5648 33.729L89.1662 32.8154L89.6436 33.6066L86.1081 36.6141L85.6356 35.8312L87.8972 34.0126L85.1387 35.0069L84.7404 34.3472L86.9502 32.4368ZM83.9505 28.5659C84.2075 28.3741 84.4565 28.2374 84.7002 28.155C84.9435 28.0718 85.1731 28.0395 85.389 28.0558C85.6054 28.0718 85.808 28.1362 85.9958 28.2464C86.1843 28.3574 86.3534 28.5079 86.5018 28.7009C86.6514 28.8943 86.7538 29.0963 86.8118 29.3048C86.8702 29.5141 86.8798 29.7247 86.8379 29.9356C86.7981 30.147 86.7049 30.3563 86.5594 30.5664C86.4131 30.7753 86.2121 30.9748 85.9556 31.1666L85.3463 31.6216C85.0828 31.8186 84.8266 31.9606 84.5784 32.0475C84.3297 32.1345 84.0939 32.1708 83.8718 32.1581C83.6496 32.1442 83.4437 32.0822 83.2514 31.9729C83.0603 31.8635 82.8904 31.7121 82.7412 31.5183C82.5928 31.3257 82.4901 31.1242 82.4353 30.9141C82.3811 30.7027 82.3757 30.4909 82.4221 30.2767C82.4681 30.0609 82.5671 29.8471 82.7192 29.6349C82.8705 29.4219 83.0781 29.2175 83.3421 29.0204L83.9509 28.5655L83.9505 28.5659ZM83.9004 29.7561C83.7263 29.8862 83.5866 30.0091 83.4818 30.1262C83.3786 30.2433 83.3052 30.3555 83.2626 30.4616C83.2207 30.5689 83.2091 30.6709 83.2265 30.7696C83.2447 30.8688 83.2891 30.9642 83.36 31.0565C83.4333 31.1511 83.5149 31.2193 83.607 31.2625C83.6985 31.3062 83.8026 31.3229 83.9178 31.3115C84.0338 31.3005 84.1631 31.2613 84.3053 31.194C84.4478 31.1262 84.6062 31.0279 84.7806 30.8977L85.3948 30.4391C85.5606 30.3151 85.6932 30.1959 85.7931 30.0829C85.8922 29.9703 85.9605 29.8605 85.9987 29.7565C86.0364 29.6508 86.0451 29.5496 86.0252 29.4517C86.0049 29.3534 85.9589 29.2571 85.8859 29.1624C85.8147 29.0702 85.7343 29.0025 85.6451 28.9588C85.5556 28.9151 85.4553 28.8968 85.3426 28.9053C85.2303 28.9143 85.1051 28.9506 84.9696 29.0147C84.8329 29.08 84.6812 29.1742 84.5154 29.2983L83.9012 29.7573L83.9004 29.7561ZM82.8858 27.0721L83.2016 27.4034L84.4271 26.2711L85.0625 26.9374L81.7084 30.0364L80.6947 28.9731C80.5376 28.8082 80.4195 28.6405 80.34 28.4708C80.2608 28.3011 80.2214 28.1321 80.2206 27.964C80.2194 27.7947 80.2604 27.6286 80.3404 27.4646C80.4208 27.301 80.5434 27.1431 80.7096 26.9897C80.8315 26.8767 80.9508 26.7869 81.0694 26.7183C81.1883 26.651 81.3052 26.6029 81.4204 26.5731C81.5364 26.5445 81.6504 26.5335 81.7631 26.54C81.8763 26.5457 81.9886 26.5678 82.1009 26.6033L82.9227 24.757L82.955 24.7272L83.6385 25.4437L82.8858 27.0725V27.0721ZM82.638 27.9241L82.277 27.5454C82.1502 27.412 82.0101 27.354 81.8564 27.3708C81.7035 27.3867 81.5514 27.4646 81.4009 27.6038C81.3238 27.6747 81.2612 27.7457 81.2136 27.818C81.1639 27.8898 81.1332 27.962 81.1187 28.0334C81.105 28.1044 81.1092 28.1754 81.1319 28.2456C81.1535 28.3162 81.1962 28.3843 81.2596 28.4508L81.638 28.8478L82.638 27.9241ZM81.4092 24.3424L80.2094 23.255L80.7316 22.6969L82.614 24.4028L79.4987 27.7343L78.8157 27.1153L81.4092 24.3424ZM80.3308 22.3166L77.5566 25.9288L76.5864 25.2066C76.3746 25.0491 76.2089 24.8708 76.0879 24.6729C75.9668 24.475 75.8939 24.2653 75.8703 24.0425C75.8466 23.8218 75.8728 23.5904 75.9507 23.3501C76.0286 23.1102 76.1604 22.869 76.3473 22.6263L76.7779 22.0656C76.9644 21.8229 77.1637 21.6319 77.3755 21.4928C77.5873 21.3549 77.8049 21.2663 78.0295 21.2288C78.2529 21.1917 78.4787 21.2039 78.705 21.2663C78.9317 21.3283 79.153 21.4397 79.3681 21.5997L80.3304 22.3162L80.3308 22.3166ZM77.2831 24.7696L79.1252 22.3708L78.9035 22.2056C78.773 22.1085 78.6503 22.044 78.5367 22.0126C78.424 21.9816 78.3125 21.984 78.2027 22.0195C78.0933 22.055 77.9843 22.1232 77.8728 22.2223C77.763 22.3215 77.6436 22.4533 77.5181 22.6173L77.0837 23.1828C76.9569 23.3481 76.8604 23.497 76.7928 23.6288C76.7261 23.7614 76.69 23.8822 76.6867 23.9944C76.683 24.1062 76.7112 24.2106 76.7717 24.3094C76.8322 24.4069 76.9263 24.504 77.0535 24.5987L77.2831 24.7696Z" fill="#FEFEFE"/>
<path d="M37.9287 70.3744L45.3939 51.2422H48.1632L56.1175 70.3744H53.1853L50.9188 64.5793H42.7925L40.6615 70.3744H37.9287ZM43.5344 62.5167H50.1268L48.0952 57.2201C47.4798 55.6121 47.0185 54.2893 46.7197 53.2513C46.4711 54.4807 46.1225 55.697 45.67 56.9084L43.5344 62.5167Z" fill="#E3E4E6" stroke="#1C3E9C" stroke-width="0.16525" stroke-miterlimit="2.61313"/>
<path d="M54.5911 70.3744L62.0563 51.2422H64.8255L72.7794 70.3744H69.8477L67.5811 64.5793H59.4549L57.3239 70.3744H54.5911ZM60.1967 62.5167H66.7891L64.7576 57.2201C64.1421 55.6121 63.6809 54.2893 63.3821 53.2513C63.133 54.4807 62.7849 55.697 62.3323 56.9084L60.1967 62.5167Z" fill="#E3E4E6" stroke="#1C3E9C" stroke-width="0.16525" stroke-miterlimit="2.61313"/>
<path fill-rule="evenodd" clip-rule="evenodd" d="M53.3748 32.3638L52.865 34.6703C54.999 32.1573 59.2801 32.092 60.397 28.4663C60.4774 29.9066 60.4567 31.4216 59.7297 33.4577C60.2975 32.9489 60.9909 32.5331 61.9602 32.3213C60.8081 33.6082 60.3166 35.1289 60.4707 36.6137C61.0563 36.1188 61.717 35.6683 62.494 35.5884C60.2884 38.336 61.6254 40.8658 59.1632 43.0075C51.87 48.7063 46.9655 37.4228 53.3752 32.3642L53.3748 32.3638Z" fill="#F16136"/>
<path fill-rule="evenodd" clip-rule="evenodd" d="M54.1547 38.287L53.8426 39.8065C55.1489 38.3927 57.7698 38.1344 58.4532 36.0947C58.5021 36.9051 58.4897 37.7574 58.0446 38.9027C58.3919 38.6163 58.8167 38.3825 59.4102 38.2634C58.7048 38.9872 58.4039 39.8428 58.4984 40.6781C58.8569 40.3998 59.2614 40.146 59.7367 40.1011C58.3865 41.6467 59.1379 42.87 57.6306 44.0749C55.7797 44.9472 53.9446 44.6 53.0183 43.8982C51.4924 42.7414 51.9785 39.8661 54.1547 38.2874V38.287Z" fill="#F5D776"/>
<path fill-rule="evenodd" clip-rule="evenodd" d="M53.5579 47.3538V69.9469C52.3672 70.2248 51.6477 70.9266 51.2503 71.9185L59.8734 71.8414C59.4847 70.9657 58.6848 70.3427 57.5447 69.9285C57.5762 62.285 57.5074 54.8928 57.5389 47.2493C58.7147 46.7258 60.1598 45.687 60.6646 43.2499C57.7909 43.9766 53.9835 44.245 50.525 43.254C50.6485 45.4304 52.6018 47.0053 53.5583 47.3534L53.5579 47.3538Z" fill="url(#paint0_linear_441_216)" stroke="#A45E4D" stroke-width="0.153417" stroke-miterlimit="2.61313"/>
<path d="M67.8932 52.4377V49.5008H66.7788V49.1107H69.4552V49.5008H68.3412V52.4377H67.8932Z" fill="black"/>
<path d="M69.9073 52.4377V49.1106H70.5775L71.3769 51.4658C71.4511 51.6849 71.5042 51.8493 71.5382 51.9582C71.5767 51.8375 71.6372 51.6592 71.7193 51.4245L72.5328 49.1102H73.1312V52.4373H72.7019V49.6537L71.7155 52.4373H71.3127L70.3371 49.6027V52.4373H69.9078L69.9073 52.4377Z" fill="black"/>
</g>
<defs>
<linearGradient id="paint0_linear_441_216" x1="55.3503" y1="50.9158" x2="55.8239" y2="64.2518" gradientUnits="userSpaceOnUse">
<stop stop-color="#EC9848"/>
<stop offset="1" stop-color="#814B3E"/>
</linearGradient>
<clipPath id="clip0_441_216">
<rect width="106.008" height="91.8733" fill="white"/>
</clipPath>
</defs>
</svg>
