<svg width="111" height="97" viewBox="0 0 111 97" fill="none" xmlns="http://www.w3.org/2000/svg">
<g clip-path="url(#clip0_3_4)">
<path fill-rule="evenodd" clip-rule="evenodd" d="M41.0669 15.9105L40.5248 16.8652L39.4315 16.1128C39.1223 16.5005 38.0651 21.7199 37.6561 22.8244C37.0456 24.4737 35.1964 28.3911 35.0476 28.8738C35.2946 28.8518 35.4786 28.509 35.7559 28.1581L40.8924 22.4107C41.7801 21.5151 43.0325 20.2706 44.1441 19.4085L47.6473 16.6547C51.9827 13.4203 58.5979 10.1496 65.1912 9.31394C63.1749 9.63056 58.4102 11.7531 56.5784 12.7426C53.0329 14.6574 49.0837 17.4463 46.0927 20.2306C44.1776 22.0141 38.1559 28.1385 37.6134 29.7559C46.7509 30.7581 59.6257 29.4422 67.1888 24.4888C77.0726 18.0159 74.7443 13.0045 83.4752 10.0186C84.6929 9.602 85.8297 9.43879 87.1571 9.21234C85.9009 8.58561 80.3189 7.32727 78.6002 7.11836C78.4718 6.42227 78.914 6.22152 79.0429 5.66661C77.6885 4.58575 73.7107 4.41071 71.6406 4.64124C70.7189 4.74366 70.0206 4.99745 69.2108 5.13577L69.2203 4.4613L69.2216 4.17242C68.8515 4.46375 65.3159 5.8898 64.2148 6.42023L61.3108 7.56963C60.7099 7.80873 61.0269 7.84301 60.5383 7.98826L59.9946 8.19554C59.4537 8.50115 59.3141 8.45096 58.6829 8.68313C58.0728 8.90754 57.4727 9.15644 56.9025 9.44083C55.4209 10.1806 56.161 9.72767 55.1888 10.1492L52.4759 11.2969C50.6706 12.1179 46.8918 13.5545 45.5088 14.2363C45.215 14.3812 45.0086 14.4865 44.699 14.6068L41.6587 15.9223C41.5667 15.9664 41.2849 16.0414 41.1208 16.0871L41.0673 15.9092L41.0669 15.9105ZM41.0669 15.9105L41.1203 16.0884C41.2849 16.0427 41.5663 15.9676 41.6583 15.9235L44.6986 14.608C45.0082 14.4873 45.2145 14.382 45.5084 14.2376C46.8914 13.5558 50.6702 12.1191 52.4755 11.2982L55.1884 10.1504C56.161 9.7289 55.4209 10.1818 56.902 9.44205C57.4719 9.15725 58.072 8.90877 58.6825 8.68435C59.3132 8.45219 59.4533 8.50238 59.9942 8.19676L60.5379 7.98949C61.0265 7.84423 60.7091 7.80996 61.3104 7.57086L64.2143 6.42145C65.3155 5.89102 68.8511 4.46457 69.2211 4.17365L69.2199 4.46253L69.3629 3.60364L67.42 3.26661H64.1547C64.1294 3.28211 64.0884 3.26783 64.0726 3.30211C64.0569 3.33679 64.0113 3.32863 63.9889 3.33475L62.5715 3.55345C57.9904 4.56617 59.2813 4.95746 58.8772 3.64158C58.481 3.43594 57.3753 3.87742 56.8904 4.05083C55.4689 4.55964 53.8104 5.2847 52.7121 6.33781C52.4382 6.60017 52.335 6.8254 52.0304 6.95352C51.6532 6.51652 51.647 5.88694 51.3192 5.39078C50.286 5.75311 47.9183 8.27103 47.1852 9.3988C46.8748 9.87701 46.9556 9.88884 46.6452 10.1059C46.2299 9.90149 46.1756 9.6579 45.7309 9.42492C44.2991 9.88231 41.4444 14.5946 41.0669 15.9101V15.9105Z" fill="#1C3E9C"/>
<path fill-rule="evenodd" clip-rule="evenodd" d="M8.84908 19.5186V19.5256C14.5898 20.1241 13.7585 23.7123 18.6385 26.943C22.3816 29.421 27.8775 29.984 33.1918 29.6339C33.1619 29.1019 31.0081 26.8043 30.694 26.473C28.4801 24.1326 25.4402 21.7876 22.3597 20.4783C21.9009 20.2833 20.5241 19.8483 20.2601 19.6782C21.2743 19.6863 23.7281 20.5823 24.581 20.9887C27.0731 22.1753 29.3562 23.7657 31.2506 25.6263C31.8171 26.1833 33.5925 27.9019 33.9067 28.6184C34.1848 28.5596 33.927 28.7498 34.1495 28.5302C34.1553 28.5245 34.1537 28.4915 34.1616 28.4743C34.014 27.9851 33.7815 27.5669 33.5892 27.1217C33.0123 25.7895 32.738 24.3876 32.4238 22.9423C31.9373 23.0309 32.2444 23.0476 31.7947 23.19L31.6082 22.8844C31.3504 22.7037 31.0235 22.6551 30.7342 22.5343L28.185 21.4412C26.5355 20.6741 24.3477 19.9222 23.0323 19.3032C21.7488 18.6993 19.0865 17.5556 17.8916 17.1717C17.8025 17.3047 17.7197 17.0415 17.7317 17.4936C16.277 17.2529 14.1518 16.9326 12.9288 17.7731L13.1273 18.472C11.7941 18.6834 10.0393 19.1196 8.84908 19.519V19.5186ZM17.7317 17.4932C17.7197 17.0411 17.8025 17.3043 17.8916 17.1713C19.0865 17.5552 21.7488 18.6985 23.0323 19.3028C24.3481 19.9217 26.5359 20.6737 28.185 21.4408L30.7342 22.5339C31.0235 22.6551 31.3509 22.7037 31.6082 22.884C31.4619 22.1565 29.9695 19.9658 29.2712 19.628C28.9057 19.8091 29.1245 19.7732 28.7097 19.925C28.3864 19.2204 27.2413 17.8988 26.4962 17.6797L26.2661 18.3243C25.7895 18.1901 25.0979 17.381 23.4799 16.8616C22.6585 16.5976 22.9386 16.7273 22.6664 17.1537C22.0957 17.066 21.5979 16.7669 20.3331 16.6522C19.4524 16.5723 18.4312 16.5804 17.6156 16.713L17.7313 17.4936L17.7317 17.4932Z" fill="#1C3E9C"/>
<path fill-rule="evenodd" clip-rule="evenodd" d="M78.3652 18.3545C90.6615 25.3024 98.944 38.3571 98.944 53.3165C98.944 75.564 80.6256 93.599 58.0285 93.599C35.4314 93.599 17.1125 75.564 17.1125 53.3165C17.1125 45.5354 19.3554 38.271 23.2366 32.1119L34.8445 31.8307C29.4776 37.4423 26.1874 45.0005 26.1874 53.3165C26.1874 70.6297 40.4431 84.665 58.0285 84.665C75.6138 84.665 89.8695 70.6297 89.8695 53.3165C89.8695 40.2511 81.7499 29.0541 70.2087 24.3455L78.3652 18.3545Z" fill="#1C3E9C" stroke="#1C3E9C" stroke-width="1.53131" stroke-miterlimit="2.61313"/>
<path fill-rule="evenodd" clip-rule="evenodd" d="M71.3235 91.4231C67.1547 92.8324 62.683 93.5991 58.0285 93.5991C35.4314 93.5991 17.1125 75.564 17.1125 53.3165C17.1125 45.5355 19.3554 38.271 23.2366 32.1119L34.8445 31.8307C29.4776 37.4423 26.1874 45.0005 26.1874 53.3165C26.1874 70.6298 40.4431 84.665 58.0285 84.665C61.7347 84.665 65.2923 84.0395 68.6007 82.8933L71.3235 91.4231Z" fill="#FEFEFE"/>
<path d="M30.309 76.9937C30.052 77.1859 29.8033 77.3226 29.5592 77.405C29.316 77.4882 29.0872 77.5213 28.8704 77.5041C28.6541 77.4886 28.4515 77.4242 28.2637 77.3144C28.0751 77.2034 27.9061 77.0529 27.7573 76.8599C27.6081 76.6665 27.5053 76.4645 27.4473 76.256C27.3888 76.0467 27.3793 75.8361 27.4208 75.6252C27.4605 75.4138 27.5538 75.2045 27.6993 74.9944C27.8451 74.7851 28.0457 74.5855 28.3027 74.3938L28.9115 73.9384C29.1751 73.7413 29.4312 73.5993 29.6794 73.512C29.9277 73.4251 30.1639 73.3888 30.386 73.401C30.6082 73.4149 30.8141 73.4765 31.0069 73.5859C31.1979 73.6948 31.3678 73.8462 31.517 74.04C31.6658 74.2326 31.7686 74.4342 31.8233 74.6439C31.878 74.8552 31.883 75.067 31.8374 75.2816C31.791 75.4975 31.6923 75.7113 31.5407 75.9234C31.3894 76.1364 31.1822 76.3409 30.9182 76.5383L30.3094 76.9937H30.309ZM30.3587 75.8035C30.5327 75.6733 30.6724 75.5501 30.7769 75.4334C30.88 75.3163 30.9534 75.2041 30.9961 75.0976C31.0379 74.9903 31.0495 74.8879 31.0317 74.7895C31.0135 74.6908 30.9691 74.5945 30.8983 74.5027C30.8253 74.408 30.7433 74.3403 30.6513 74.2971C30.5597 74.2534 30.4557 74.2367 30.3405 74.2485C30.2244 74.2591 30.0947 74.2987 29.953 74.366C29.8104 74.4342 29.6521 74.5325 29.478 74.6627L28.8638 75.1217C28.6985 75.2457 28.5658 75.3653 28.466 75.4783C28.3673 75.5909 28.2989 75.7007 28.2604 75.8051C28.2227 75.9104 28.2144 76.0116 28.2343 76.1099C28.2546 76.2078 28.3006 76.3045 28.3735 76.3988C28.4448 76.491 28.5256 76.5583 28.6147 76.6024C28.7043 76.6461 28.8046 76.664 28.9177 76.6554C29.0296 76.6465 29.1547 76.6101 29.2907 76.5461C29.4274 76.4808 29.5791 76.3861 29.7449 76.2625L30.3587 75.8031V75.8035ZM32.2274 79.0501L31.2468 78.0068L29.8701 79.2615L29.2397 78.5907L32.6157 75.515L34.3447 77.3544L33.7765 77.8722L32.6779 76.7036L31.8129 77.4915L32.7935 78.5348L32.2274 79.0505V79.0501ZM64.7353 86.7312L63.6142 86.9144L64.2417 90.6294L63.3229 90.78L62.6954 87.0649L61.5914 87.2457L61.4646 86.4941L64.6085 85.9792L64.7353 86.7312ZM68.4693 87.8047C68.5477 88.1128 68.5779 88.3918 68.5593 88.6448C68.5415 88.8978 68.4822 89.1185 68.3815 89.3074C68.282 89.4972 68.1419 89.6555 67.9654 89.7824C67.788 89.9097 67.5804 90.0035 67.3421 90.0627C67.1025 90.1219 66.8742 90.1357 66.6562 90.1064C66.4374 90.0774 66.2372 90.0031 66.0565 89.8828C65.875 89.7632 65.7158 89.5971 65.5766 89.3829C65.4386 89.1683 65.3308 88.9084 65.2525 88.6008L65.0664 87.8708C64.9856 87.5546 64.9533 87.2669 64.9694 87.0082C64.9856 86.7491 65.0445 86.5215 65.1435 86.3252C65.2434 86.1298 65.3822 85.967 65.5596 85.836C65.737 85.7058 65.945 85.6116 66.1842 85.5524C66.4229 85.4932 66.6516 85.4794 66.8688 85.512C67.0876 85.5455 67.2874 85.6238 67.4697 85.7495C67.6533 85.8764 67.8141 86.0498 67.953 86.2705C68.0926 86.4909 68.2025 86.7593 68.2829 87.0751L68.4689 87.8051L68.4693 87.8047ZM67.3769 87.2922C67.3234 87.0833 67.2633 86.9087 67.1954 86.7679C67.1266 86.6284 67.0507 86.5178 66.9678 86.4378C66.8841 86.3578 66.7934 86.3068 66.6943 86.2844C66.5953 86.262 66.4879 86.2644 66.374 86.2926C66.2567 86.3215 66.1614 86.3693 66.0847 86.435C66.008 86.5011 65.9512 86.5888 65.9168 86.6977C65.8816 86.8071 65.8675 86.9397 65.8746 87.0943C65.882 87.2498 65.9119 87.4322 65.9653 87.6411L66.1531 88.3772C66.204 88.5759 66.2629 88.7427 66.3296 88.8778C66.3959 89.0112 66.4718 89.1165 66.5547 89.192C66.6384 89.2675 66.7295 89.3152 66.829 89.3356C66.9289 89.3556 67.0371 89.3519 67.1539 89.323C67.2683 89.2948 67.3628 89.2483 67.4391 89.1846C67.5153 89.121 67.5713 89.0369 67.6077 88.9317C67.6434 88.8268 67.6583 88.6991 67.6517 88.551C67.6446 88.4016 67.6156 88.227 67.5651 88.0283L67.3769 87.2922ZM36.3411 79.0383L34.9113 82.1164L37.6847 80.1171L38.6246 80.872L35.7173 84.3814L34.9954 83.8016L35.7816 82.8525L37.0601 81.442L34.3493 83.2834L33.8594 82.89L35.1458 79.9049L33.9995 81.4216L33.2133 82.3706L32.4939 81.7929L35.4011 78.2835L36.3415 79.0379L36.3411 79.0383ZM38.7643 85.1366L37.6801 84.4915L36.9826 85.1591L36.1417 84.6584L39.7515 81.515L40.4792 81.9487L39.3362 86.5602L38.4874 86.0547L38.7643 85.1366ZM38.2545 83.9423L38.9897 84.3802L39.4696 82.7803L38.2545 83.9423ZM43.822 84.5838L42.815 84.0652L41.0416 87.4024L40.216 86.9772L41.9894 83.64L40.9981 83.1292L41.357 82.4539L44.1809 83.9085L43.822 84.5838ZM45.4864 87.167L44.1552 86.6092L43.6774 87.7137L45.2527 88.3743L44.9505 89.0724L42.5211 88.054L44.3231 83.8877L46.7467 84.9036L46.4433 85.605L44.8739 84.9469L44.4478 85.9315L45.7794 86.4896L45.4864 87.1674V87.167ZM47.3116 88.0197L46.8694 87.8896L46.3878 89.4751L45.4984 89.2132L46.8167 84.8747L48.2362 85.2925C48.4563 85.3574 48.6436 85.4435 48.799 85.5516C48.954 85.6593 49.0746 85.7854 49.1608 85.9306C49.2482 86.0763 49.2976 86.2403 49.3121 86.4219C49.3257 86.6035 49.3005 86.801 49.2354 87.0156C49.1873 87.1735 49.1301 87.3102 49.0626 87.4281C48.9946 87.5452 48.9184 87.6443 48.8334 87.7268C48.7476 87.8092 48.6548 87.8749 48.5541 87.9251C48.4529 87.9765 48.3452 88.0128 48.2296 88.0381L48.4621 90.0407L48.4492 90.0823L47.4927 89.8008L47.3124 88.0201L47.3116 88.0197ZM47.0911 87.1604L47.5963 87.3094C47.7737 87.3616 47.9249 87.3428 48.0489 87.2522C48.1728 87.1625 48.2644 87.0197 48.3236 86.8254C48.3535 86.7259 48.3717 86.6337 48.3763 86.5476C48.3825 86.4611 48.3721 86.3835 48.3481 86.3146C48.3236 86.2469 48.2843 86.1873 48.2283 86.1379C48.174 86.0873 48.1019 86.0498 48.0132 86.0237L47.4832 85.8678L47.0903 87.1612L47.0911 87.1604ZM49.8765 90.3769L48.976 90.1561L50.0875 85.7617L50.9885 85.9825L49.8765 90.3769ZM52.9819 89.964L51.727 89.7918L51.354 90.6764L50.3809 90.5429L52.4382 86.253L53.2803 86.3685L54.0781 91.0501L53.0954 90.9155L52.9819 89.9644V89.964ZM52.0345 89.0647L52.8857 89.1814L52.686 87.5252L52.0349 89.0651L52.0345 89.0647ZM55.5 90.3479L57.1287 90.425L57.0914 91.1831L54.5356 91.062L54.7565 86.5386L55.684 86.5823L55.5 90.3475V90.3479ZM59.5565 89.9423C59.5557 89.864 59.547 89.793 59.5312 89.7318C59.5151 89.669 59.4844 89.6114 59.4359 89.5568C59.3878 89.5021 59.319 89.4499 59.2312 89.3993C59.1433 89.3483 59.026 89.2956 58.8797 89.2393C58.7065 89.1769 58.5403 89.1059 58.3832 89.0251C58.2245 88.9443 58.0853 88.8476 57.9651 88.7366C57.8449 88.6256 57.7483 88.4963 57.6754 88.349C57.6033 88.2013 57.5651 88.0299 57.5626 87.8324C57.5602 87.6435 57.5946 87.4713 57.6638 87.313C57.7326 87.1559 57.832 87.0213 57.9601 86.9099C58.0882 86.7981 58.2398 86.7112 58.4172 86.6471C58.5942 86.5843 58.791 86.5508 59.0057 86.548C59.2266 86.5455 59.4268 86.5765 59.6054 86.6443C59.784 86.7108 59.9378 86.8054 60.0642 86.927C60.1906 87.0499 60.2884 87.1947 60.3588 87.3648C60.4281 87.5358 60.4654 87.7231 60.4678 87.9283L59.5416 87.9402C59.5403 87.8451 59.5296 87.7578 59.508 87.6782C59.4873 87.5982 59.455 87.5305 59.4114 87.4738C59.3663 87.4183 59.3107 87.3742 59.2436 87.3424C59.1752 87.3114 59.094 87.2967 58.9991 87.2979C58.9108 87.2992 58.8346 87.3138 58.7711 87.3412C58.7069 87.3685 58.6547 87.4065 58.6132 87.4538C58.5714 87.5007 58.5399 87.5566 58.5204 87.6215C58.4997 87.6856 58.491 87.7549 58.4918 87.8267C58.4926 87.901 58.51 87.9687 58.5428 88.0279C58.5759 88.0879 58.6232 88.1438 58.6841 88.1952C58.745 88.245 58.818 88.2931 58.9038 88.3376C58.9896 88.3825 59.0849 88.4253 59.1881 88.4677C59.4048 88.5428 59.5926 88.6248 59.7542 88.7162C59.915 88.8064 60.0501 88.9109 60.1595 89.0271C60.2681 89.1446 60.3506 89.2764 60.4053 89.4241C60.4591 89.571 60.4886 89.7383 60.4906 89.9252C60.4935 90.1239 60.4625 90.3014 60.3978 90.4585C60.3344 90.6144 60.2411 90.747 60.1197 90.8559C59.9983 90.9636 59.8491 91.0473 59.6754 91.1072C59.5014 91.1668 59.3058 91.1978 59.0857 91.2007C58.8884 91.2031 58.6941 91.1762 58.5022 91.1195C58.3107 91.0624 58.1391 90.9742 57.9887 90.8543C57.8374 90.7331 57.7143 90.5805 57.6203 90.3952C57.5258 90.2096 57.4777 89.9884 57.4744 89.7318L58.4056 89.7191C58.4077 89.8562 58.4234 89.9725 58.4516 90.0668C58.481 90.1619 58.5229 90.239 58.5801 90.2977C58.6369 90.3553 58.7065 90.3969 58.7886 90.4222C58.871 90.4467 58.9672 90.4581 59.0762 90.4569C59.1644 90.4556 59.2399 90.4418 59.3016 90.4156C59.363 90.3883 59.4131 90.3528 59.4512 90.3075C59.4906 90.2622 59.5167 90.2092 59.5333 90.1463C59.5495 90.0843 59.5573 90.0162 59.5561 89.944L59.5565 89.9423ZM24.0783 37.856L24.644 36.7401L23.9117 36.1097L24.3506 35.2443L27.8244 38.5321L27.4444 39.2817L22.6829 38.5325L23.126 37.6589L24.0779 37.856H24.0783ZM25.2462 37.2591L24.8624 38.016L26.5206 38.3579L25.2462 37.2591ZM22.5549 38.934L26.8542 40.5441L26.4215 41.6629C26.3275 41.9069 26.1998 42.1138 26.0411 42.2839C25.8815 42.4536 25.6975 42.5814 25.487 42.6658C25.2781 42.7499 25.0456 42.7903 24.7895 42.7841C24.5334 42.778 24.2615 42.7205 23.9722 42.612L23.3054 42.3622C23.0161 42.2541 22.7741 42.1191 22.5793 41.9571C22.3854 41.7959 22.2382 41.6152 22.1388 41.4132C22.0397 41.2124 21.9883 40.9958 21.9858 40.7644C21.9829 40.5327 22.0298 40.2923 22.1255 40.0443L22.5544 38.934H22.5549ZM25.8003 41.1272L22.9453 40.0581L22.8466 40.314C22.7882 40.4649 22.76 40.5984 22.7613 40.7146C22.7629 40.8301 22.7965 40.9346 22.8615 41.0284C22.9266 41.1223 23.0236 41.2059 23.1517 41.2838C23.2789 41.3597 23.4413 41.4352 23.6361 41.5078L24.3092 41.76C24.5056 41.8334 24.678 41.8836 24.8256 41.9102C24.9735 41.9359 25.1016 41.9363 25.2118 41.9085C25.3216 41.8804 25.4161 41.8249 25.4949 41.7396C25.5732 41.6555 25.6416 41.5388 25.6984 41.392L25.8003 41.1272ZM22.1636 43.9817L25.1853 45.5685L24.9167 46.5539L20.8175 44.12L21.0679 43.2003L25.8517 43.1212L25.5848 44.1004L22.1636 43.9817ZM20.9431 47.831L21.1682 46.6037L20.2854 46.2005L20.4599 45.249L24.7311 47.445L24.5802 48.2692L19.7964 48.8657L19.9729 47.9044L20.9427 47.831H20.9431ZM21.8943 46.9354L21.7417 47.7677L23.431 47.6376L21.8943 46.9354ZM19.5523 52.449L19.6182 51.5375L22.7235 50.4142L19.7143 50.2036L19.7802 49.2921L24.3684 49.6136L24.3025 50.5252L21.1934 51.6513L24.206 51.8627L24.1401 52.7709L19.5519 52.4494L19.5523 52.449ZM21.14 56.222C20.6157 56.2069 20.2158 56.067 19.9427 55.803C19.6691 55.539 19.5295 55.164 19.5224 54.6772C19.5187 54.4267 19.5577 54.2023 19.6401 54.0036C19.7214 53.8049 19.8445 53.6376 20.0086 53.5009C20.1735 53.3638 20.377 53.2581 20.6219 53.1834C20.8669 53.108 21.1487 53.0692 21.469 53.0647L22.2519 53.0541C22.5719 53.0496 22.8557 53.0819 23.1032 53.1524C23.351 53.2226 23.5582 53.3263 23.7265 53.4625C23.8956 53.5996 24.0228 53.7657 24.1119 53.9615C24.1998 54.1566 24.2449 54.3781 24.2487 54.6254C24.2553 55.1179 24.121 55.4945 23.845 55.7552C23.5682 56.0147 23.1682 56.1657 22.6436 56.2081L22.6307 55.2909C22.7952 55.2848 22.9324 55.2689 23.0431 55.2427C23.1529 55.2179 23.2408 55.1795 23.3046 55.1285C23.3701 55.0787 23.4152 55.0138 23.4413 54.9326C23.4683 54.8527 23.4799 54.7539 23.4782 54.636C23.4762 54.5128 23.4546 54.4092 23.4111 54.3239C23.368 54.2382 23.2988 54.1692 23.2043 54.1166C23.1098 54.0648 22.9863 54.026 22.8329 54.0028C22.6796 53.9779 22.4927 53.9681 22.2718 53.9709L21.4827 53.982C21.2672 53.9848 21.084 53.9979 20.9336 54.0203C20.7819 54.0436 20.6584 54.0811 20.5643 54.1346C20.469 54.188 20.3998 54.257 20.3567 54.3422C20.314 54.4279 20.2925 54.5365 20.2945 54.667C20.2962 54.7784 20.3095 54.8751 20.3351 54.9543C20.36 55.0334 20.4039 55.0987 20.4661 55.1497C20.527 55.2011 20.612 55.2391 20.7202 55.264C20.8283 55.2901 20.9643 55.3044 21.1284 55.3084L21.1412 56.2224L21.14 56.222ZM21.9572 58.928L21.8068 57.5114L20.5942 57.6358L20.772 59.3124L20.0053 59.3911L19.7313 56.8059L24.3063 56.3358L24.5798 58.915L23.8098 58.9941L23.6328 57.3241L22.552 57.4351L22.702 58.8521L21.9577 58.9284L21.9572 58.928ZM24.9188 60.4634L21.8487 61.9866L25.2827 62.1326L25.5376 63.3004L21.0401 64.2507L20.8445 63.3539L22.0609 63.0968L23.954 62.7822L20.6692 62.5517L20.5366 61.9437L23.4355 60.4047L21.578 60.8829L20.3617 61.1399L20.1665 60.2463L24.6639 59.2961L24.9184 60.4638L24.9188 60.4634ZM23.9971 66.4516L23.4828 65.1198L22.3431 65.5466L22.9519 67.1224L22.2312 67.3921L21.2925 64.9619L25.5914 63.3518L26.5285 65.7759L25.8045 66.0468L25.1981 64.4771L24.1824 64.8574L24.6967 66.1888L23.9971 66.4512V66.4516ZM23.6892 70.7526L23.3241 69.9124L25.5641 67.5145L22.7903 68.6827L22.4251 67.8425L26.654 66.0615L27.0192 66.9016L24.7779 69.3037L27.5546 68.1343L27.9185 68.9715L23.6896 70.7526H23.6892ZM29.0263 72.1247L28.4295 71.172L25.1733 73.1489L24.6842 72.3679L27.9405 70.3915L27.3532 69.4534L28.0122 69.0535L29.6848 71.7245L29.0259 72.1247H29.0263Z" fill="#1C3E9C"/>
<path d="M74.1828 86.6794C74.1484 86.6088 74.1106 86.5476 74.07 86.4986C74.029 86.4484 73.9764 86.4084 73.9092 86.3787C73.8421 86.3493 73.758 86.3297 73.656 86.3199C73.5545 86.3101 73.4256 86.3101 73.2685 86.3191C73.0845 86.3338 72.9038 86.3375 72.7264 86.3289C72.5478 86.3207 72.3804 86.2905 72.2241 86.2391C72.0679 86.1877 71.9249 86.1102 71.796 86.0061C71.6675 85.9021 71.5602 85.7617 71.474 85.5834C71.3911 85.4125 71.3493 85.2419 71.3447 85.0701C71.3406 84.8992 71.3737 84.7355 71.4429 84.5821C71.5113 84.4275 71.6124 84.2863 71.7463 84.1549C71.8806 84.0248 72.0451 83.9138 72.2386 83.8228C72.438 83.729 72.6328 83.6751 72.8242 83.6633C73.0149 83.6502 73.1943 83.6726 73.3609 83.731C73.5284 83.7902 73.6788 83.8816 73.8147 84.0072C73.9503 84.1341 74.0638 84.2892 74.1529 84.474L73.317 84.8665C73.2751 84.78 73.2283 84.7058 73.1748 84.6429C73.1222 84.5781 73.0642 84.5299 73.0004 84.4969C72.9357 84.465 72.8665 84.4479 72.7919 84.4467C72.7169 84.4467 72.6369 84.4667 72.5511 84.5066C72.4715 84.5442 72.4086 84.5891 72.3626 84.6401C72.3157 84.6915 72.2842 84.7474 72.2668 84.8074C72.249 84.8673 72.244 84.931 72.254 84.9979C72.2623 85.0648 72.2838 85.1309 72.3153 85.1962C72.3476 85.2631 72.3924 85.3178 72.4471 85.3578C72.503 85.399 72.5694 85.43 72.6464 85.4512C72.7235 85.4712 72.8101 85.4847 72.9067 85.49C73.0037 85.4953 73.1085 85.4953 73.22 85.4908C73.4488 85.4696 73.6539 85.4667 73.84 85.4835C74.0244 85.499 74.1915 85.5381 74.3402 85.5989C74.4886 85.6609 74.6196 85.7466 74.7323 85.858C74.8434 85.9694 74.9412 86.1094 75.0232 86.2779C75.1103 86.457 75.1571 86.6312 75.1654 86.8001C75.1737 86.9683 75.1455 87.1274 75.0817 87.2759C75.017 87.4236 74.9175 87.5611 74.7849 87.6868C74.6523 87.8125 74.4874 87.9218 74.2893 88.0148C74.1111 88.0985 73.9229 88.154 73.7244 88.1813C73.5263 88.2086 73.3327 88.1993 73.1454 88.1519C72.9564 88.1046 72.7803 88.0169 72.6158 87.8871C72.4512 87.7574 72.3132 87.5762 72.2013 87.3445L73.0422 86.9495C73.1019 87.0731 73.1653 87.1727 73.2312 87.2465C73.2983 87.3208 73.3688 87.3734 73.4459 87.4032C73.5221 87.4322 73.603 87.4416 73.6883 87.4305C73.7733 87.4187 73.8657 87.3897 73.9639 87.3436C74.0439 87.3061 74.1061 87.2624 74.1517 87.2131C74.1956 87.1629 74.2259 87.1098 74.2416 87.0531C74.2578 86.996 74.2594 86.9368 74.2474 86.8732C74.2358 86.8104 74.2143 86.7451 74.1828 86.6798V86.6794ZM76.2926 81.7304L77.9367 84.3867C78.076 84.6115 78.1634 84.822 78.1978 85.0208C78.233 85.2186 78.2243 85.4027 78.1729 85.5724C78.1215 85.7421 78.032 85.8996 77.9027 86.0416C77.7738 86.1848 77.6172 86.3126 77.4303 86.4248C77.2396 86.539 77.0494 86.6194 76.8608 86.6671C76.6723 86.7157 76.4895 86.7218 76.3125 86.6892C76.1356 86.6561 75.9657 86.579 75.8032 86.4574C75.6399 86.3366 75.4899 86.1632 75.3506 85.9384L73.7066 83.2826L74.5048 82.8036L76.1488 85.4594C76.2276 85.5871 76.303 85.6842 76.3735 85.7511C76.4439 85.818 76.5148 85.8613 76.5848 85.8805C76.6553 85.9 76.7266 85.8996 76.7987 85.8796C76.8708 85.8588 76.9483 85.825 77.0291 85.7764C77.1103 85.7279 77.1754 85.676 77.228 85.6222C77.279 85.5679 77.3117 85.5059 77.325 85.4361C77.3391 85.3668 77.3312 85.2856 77.3043 85.1925C77.2761 85.1003 77.2231 84.9902 77.1439 84.862L75.4998 82.2062L76.2926 81.7304ZM80.1929 83.141C80.1486 83.0757 80.1017 83.021 80.0541 82.9786C80.006 82.9349 79.948 82.9031 79.8771 82.8835C79.8062 82.8639 79.72 82.8574 79.6181 82.8623C79.5161 82.8676 79.3889 82.8868 79.2351 82.9182C79.0553 82.9594 78.8771 82.9896 78.7005 83.0072C78.5227 83.0251 78.3524 83.0194 78.1903 82.9912C78.0283 82.9631 77.8754 82.9072 77.732 82.8231C77.5894 82.7387 77.4622 82.6159 77.3503 82.4518C77.2429 82.2952 77.1758 82.1324 77.1456 81.963C77.1161 81.7945 77.124 81.6276 77.1692 81.4656C77.2135 81.3032 77.2923 81.1482 77.405 80.9997C77.5181 80.8516 77.6644 80.7173 77.8422 80.599C78.0254 80.4774 78.2102 80.3958 78.3976 80.3558C78.5841 80.315 78.7652 80.3113 78.9388 80.3448C79.1129 80.3791 79.2758 80.4476 79.4291 80.5517C79.5824 80.6573 79.7175 80.7944 79.834 80.9642L79.066 81.4742C79.0118 81.3951 78.9541 81.3281 78.892 81.2735C78.8302 81.2172 78.7656 81.1784 78.6972 81.1543C78.6288 81.1319 78.5579 81.1253 78.4838 81.1347C78.4092 81.1458 78.3333 81.1772 78.2546 81.2294C78.1812 81.278 78.1257 81.3318 78.088 81.3885C78.0494 81.4461 78.0266 81.506 78.0184 81.5676C78.0101 81.6297 78.0146 81.6933 78.0345 81.7582C78.0528 81.8231 78.0838 81.8855 78.1249 81.9451C78.1671 82.0067 78.2194 82.0544 78.2794 82.0858C78.3408 82.1181 78.4112 82.1393 78.4908 82.1491C78.5696 82.1581 78.6574 82.1589 78.754 82.1499C78.8505 82.1409 78.9541 82.1254 79.064 82.105C79.2869 82.0507 79.49 82.0181 79.6761 82.0075C79.8609 81.9961 80.0317 82.0104 80.1883 82.0491C80.3442 82.0891 80.4867 82.1544 80.6152 82.2486C80.7416 82.3425 80.8593 82.4669 80.9654 82.6216C81.0781 82.786 81.1511 82.9513 81.1842 83.1177C81.2178 83.2826 81.2137 83.4437 81.1726 83.6004C81.1308 83.7559 81.0529 83.906 80.941 84.0501C80.8286 84.1937 80.6823 84.3255 80.5 84.4463C80.3363 84.5548 80.1585 84.6372 79.9666 84.6931C79.7747 84.749 79.582 84.7678 79.3897 84.7486C79.1954 84.729 79.008 84.6678 78.8261 84.5634C78.6437 84.4589 78.4804 84.2998 78.3342 84.0868L79.1067 83.5743C79.1846 83.6877 79.2625 83.7767 79.3387 83.8403C79.4162 83.9044 79.4937 83.946 79.5746 83.9644C79.6541 83.9819 79.7354 83.9791 79.8182 83.9562C79.9007 83.9317 79.9873 83.8897 80.0781 83.8297C80.1515 83.7808 80.2066 83.729 80.2443 83.6735C80.2803 83.6176 80.3023 83.5604 80.3089 83.5021C80.3168 83.4433 80.3089 83.3842 80.2878 83.323C80.2671 83.2622 80.2356 83.2014 80.195 83.1414L80.1929 83.141ZM81.9924 78.4193L81.1117 79.1264L83.5287 82.0454L82.8067 82.6248L80.3893 79.7058L79.5215 80.4019L79.0325 79.8111L81.5025 77.8285L81.992 78.4193H81.9924ZM85.3327 79.0114L84.4384 79.8952L84.932 80.7206L84.239 81.4057L81.9928 77.2083L82.5933 76.6146L86.8728 78.8012L86.1728 79.4933L85.3323 79.011L85.3327 79.0114ZM84.0331 79.2158L84.6394 78.6164L83.1743 77.7779L84.0331 79.2158ZM87.7365 77.6959L87.1484 78.403L83.5892 75.5346L84.1773 74.8275L87.7365 77.6959ZM90.1907 74.6027L89.63 75.331L86.4049 74.6027L88.809 76.3968L88.2483 77.1251L84.5826 74.3897L85.1433 73.661L88.3726 74.3885L85.966 72.5923L86.5246 71.8665L90.1903 74.6019L90.1907 74.6027ZM90.9363 71.5972L90.2811 72.6646L90.9595 73.3509L90.4518 74.1787L87.2574 70.6269L87.6975 69.91L92.3819 71.0337L91.8688 71.8693L90.9363 71.5972ZM89.7233 72.0999L90.1675 71.376L88.5421 70.9039L89.7233 72.0999ZM92.4817 70.6151L88.3225 68.6818L88.9292 67.4166C89.0274 67.2117 89.1385 67.0395 89.2624 66.8988C89.3859 66.7576 89.521 66.6527 89.6694 66.5842C89.8173 66.5156 89.9773 66.4842 90.1485 66.4924C90.3196 66.4989 90.502 66.5487 90.6959 66.6385C90.7913 66.6829 90.8783 66.7352 90.957 66.7951C91.0341 66.8555 91.1013 66.9245 91.1568 67.002C91.2136 67.0804 91.2563 67.1656 91.2878 67.2591C91.3184 67.3521 91.3329 67.4537 91.3296 67.5626C91.4104 67.4712 91.4987 67.4039 91.5965 67.3594C91.6927 67.315 91.7934 67.2901 91.8966 67.2827C92.0002 67.2762 92.1046 67.2844 92.2111 67.308C92.3172 67.3329 92.4208 67.368 92.5211 67.4145C92.9248 67.6022 93.1772 67.8536 93.2787 68.1673C93.3794 68.4815 93.3301 68.8451 93.1316 69.26L92.4813 70.6155L92.4817 70.6151ZM91.0706 68.9483L92.1813 69.4644L92.4349 68.9352C92.4734 68.8548 92.4929 68.7794 92.4938 68.71C92.495 68.6402 92.4797 68.5758 92.4482 68.5166C92.4179 68.4578 92.3732 68.404 92.3168 68.3579C92.2604 68.3109 92.1929 68.2685 92.1145 68.2322C91.938 68.1502 91.7818 68.1175 91.6487 68.1343C91.5144 68.1514 91.4113 68.2371 91.3375 68.3909L91.0706 68.9475V68.9483ZM90.4593 68.6643L90.6653 68.2342C90.7444 68.069 90.7598 67.9258 90.7113 67.8058C90.6624 67.6854 90.5546 67.5875 90.3872 67.5096C90.199 67.4223 90.0457 67.3966 89.9276 67.4329C89.8099 67.4696 89.7104 67.5728 89.6292 67.7418L89.4191 68.1804L90.4593 68.6639V68.6643ZM93.5477 66.1958L94.1291 64.6963L94.8494 64.9668L93.9364 67.3203L89.6395 65.7049L89.9707 64.8509L93.5473 66.1958H93.5477ZM93.6422 61.7291L93.2845 63.1095L94.4661 63.4061L94.8896 61.7728L95.6364 61.9605L94.9837 64.4796L90.5268 63.36L91.1779 60.8474L91.9281 61.0359L91.5066 62.6631L92.5592 62.9275L92.9173 61.5471L93.6422 61.7295V61.7291ZM94.8776 60.0032C94.7446 59.9901 94.6269 59.962 94.522 59.9187C94.4167 59.8759 94.3218 59.8196 94.2356 59.7506C94.149 59.6825 94.0682 59.6021 93.9928 59.5107C93.9173 59.4189 93.8419 59.3165 93.7665 59.2059C93.5729 59.3014 93.3914 59.3748 93.2223 59.4246C93.0537 59.4752 92.8821 59.4919 92.7084 59.4752C92.5261 59.4576 92.3632 59.4164 92.2202 59.3503C92.0785 59.2842 91.9583 59.1994 91.8622 59.0949C91.7652 58.9917 91.6947 58.8697 91.65 58.7314C91.6065 58.5926 91.5919 58.4425 91.6081 58.2797C91.6239 58.1242 91.6665 57.9875 91.7358 57.8684C91.8062 57.7497 91.8937 57.6501 92.0002 57.5718C92.1063 57.4938 92.226 57.4367 92.3607 57.4008C92.4942 57.3645 92.633 57.3535 92.7781 57.3673C92.9915 57.3877 93.1772 57.4506 93.3334 57.5554C93.4901 57.6599 93.6243 57.799 93.7362 57.9716L93.9053 58.2226L94.7839 57.7227C94.682 57.6774 94.5742 57.6403 94.4615 57.6105C94.3488 57.5803 94.2261 57.5603 94.096 57.5477L94.1697 56.8071C94.4445 56.8336 94.6981 56.8846 94.9323 56.9597C95.1665 57.0332 95.3745 57.1421 95.5564 57.2853L96.4417 56.7826L96.343 57.7758L96.0869 57.921C96.1781 58.0683 96.2403 58.2201 96.2734 58.3764C96.3066 58.531 96.3153 58.6971 96.2979 58.8721C96.2784 59.0655 96.2291 59.2377 96.1491 59.3871C96.0703 59.5376 95.968 59.6608 95.8428 59.7575C95.7181 59.8555 95.5726 59.9248 95.4081 59.9673C95.2423 60.0101 95.0657 60.0219 94.878 60.0036L94.8776 60.0032ZM95.5664 58.7542C95.5825 58.5906 95.5432 58.4323 95.4491 58.2768L94.3566 58.8905L94.3699 58.9097C94.4644 58.9835 94.5568 59.0353 94.6472 59.0635C94.7375 59.0925 94.8254 59.1104 94.9112 59.1186C94.9994 59.1271 95.0819 59.1243 95.159 59.1096C95.2373 59.0957 95.3049 59.0712 95.3633 59.0386C95.4217 59.006 95.4682 58.9656 95.5042 58.917C95.5394 58.8681 95.5602 58.8134 95.566 58.7542H95.5664ZM92.7698 58.6938C92.8576 58.7024 92.9484 58.6918 93.0412 58.6624C93.1341 58.633 93.2327 58.5902 93.3375 58.5363L93.2385 58.3801C93.202 58.3217 93.1651 58.2756 93.1291 58.2393C93.0926 58.2038 93.0541 58.1756 93.0147 58.1556C92.9753 58.1348 92.936 58.1201 92.8945 58.1108C92.8535 58.1014 92.8096 58.094 92.7636 58.0895C92.7176 58.0851 92.6695 58.0879 92.621 58.0973C92.5725 58.1055 92.5298 58.1214 92.4917 58.1434C92.4527 58.1663 92.4208 58.194 92.3935 58.2299C92.3674 58.265 92.3512 58.3058 92.3462 58.3535C92.3412 58.4029 92.3487 58.4478 92.3698 58.487C92.3893 58.5261 92.4196 58.56 92.4581 58.5894C92.4967 58.6175 92.5418 58.6412 92.5953 58.6579C92.6492 58.6759 92.7072 58.6877 92.7698 58.6938ZM96.05 51.7909C96.1014 51.839 96.1611 51.9035 96.2287 51.9843C96.295 52.0667 96.358 52.1679 96.4172 52.2891C96.4757 52.4107 96.5254 52.5543 96.5648 52.7179C96.6058 52.8819 96.6249 53.0708 96.6232 53.2842C96.6211 53.5368 96.5788 53.7649 96.4972 53.9677C96.4164 54.1701 96.2941 54.3431 96.13 54.4875C95.9671 54.6319 95.7616 54.7417 95.5142 54.8176C95.2655 54.8935 94.9737 54.9306 94.6389 54.9282L93.8626 54.9225C93.5269 54.92 93.2364 54.8796 92.9898 54.8037C92.7424 54.7278 92.5373 54.6201 92.3744 54.481C92.2115 54.3418 92.0901 54.1733 92.0118 53.9742C91.9334 53.7763 91.8953 53.5531 91.897 53.3067C91.899 53.0496 91.933 52.8281 91.9998 52.6416C92.0661 52.4555 92.1643 52.3009 92.2952 52.1769C92.4258 52.0536 92.5862 51.9594 92.7772 51.8945C92.9687 51.8292 93.1879 51.788 93.437 51.7721L93.4304 52.6616C93.2845 52.6722 93.1635 52.6914 93.0665 52.7199C92.9691 52.7465 92.8916 52.7856 92.834 52.8362C92.7756 52.8868 92.7329 52.9493 92.7076 53.0219C92.6811 53.0949 92.6686 53.1831 92.6682 53.2842C92.667 53.405 92.6877 53.5095 92.7304 53.5988C92.7731 53.6886 92.8415 53.7633 92.9368 53.8232C93.0321 53.8832 93.156 53.9277 93.309 53.9575C93.4606 53.9881 93.6463 54.0036 93.8626 54.0048L94.6455 54.0105C94.8656 54.0122 95.05 53.9975 95.2025 53.9669C95.3546 53.9359 95.4781 53.8877 95.5743 53.8228C95.6704 53.7588 95.7413 53.6764 95.7852 53.5768C95.8291 53.4785 95.8515 53.3605 95.8523 53.2259C95.8528 53.1451 95.847 53.0761 95.8345 53.0198C95.8221 52.9623 95.8072 52.9133 95.7902 52.873C95.7719 52.8326 95.7541 52.7983 95.7346 52.7726C95.7164 52.7469 95.7007 52.7244 95.6878 52.7053L94.8449 52.6991L94.8399 53.3405L94.1391 53.3357L94.1507 51.7774L96.0496 51.7909H96.05ZM94.6729 49.9523L94.728 50.4036L96.3969 50.2061L96.508 51.1136L91.9409 51.6542L91.7639 50.2057C91.7366 49.9813 91.742 49.7777 91.7805 49.5945C91.8191 49.4117 91.8887 49.2526 91.9894 49.1167C92.0901 48.9796 92.2231 48.8698 92.3864 48.7841C92.5501 48.6997 92.7441 48.6434 92.9699 48.6164C93.1361 48.5969 93.2866 48.594 93.4229 48.6079C93.5593 48.623 93.6824 48.6524 93.793 48.6956C93.9037 48.7401 94.0023 48.798 94.0889 48.869C94.1772 48.94 94.2543 49.0228 94.3235 49.1171L96.0964 48.1085L96.1404 48.1032L96.2597 49.0791L94.6733 49.9519L94.6729 49.9523ZM93.96 50.4942L93.897 49.9788C93.8751 49.7973 93.7972 49.6687 93.6633 49.5924C93.5303 49.5165 93.3608 49.4904 93.1564 49.5149C93.0516 49.5272 92.9583 49.548 92.8763 49.5777C92.793 49.6067 92.7254 49.6471 92.6703 49.6961C92.6168 49.7454 92.5775 49.8046 92.5534 49.8748C92.5282 49.9442 92.5215 50.0241 92.5331 50.1147L92.599 50.6553L93.9604 50.4942H93.96ZM93.6326 45.6987L93.9049 47.0978L95.1026 46.8721L94.7806 45.2164L95.5378 45.074L96.0347 47.6274L91.5169 48.4793L91.0217 45.9325L91.7822 45.7888L92.1029 47.4381L93.1705 47.2369L92.8982 45.8378L93.633 45.6991L93.6326 45.6987ZM92.8709 42.8527L93.2542 44.2265L94.4304 43.9087L93.9766 42.2831L94.7201 42.0819L95.4193 44.5888L90.9836 45.788L90.2861 43.2872L91.0329 43.0857L91.4846 44.7047L92.5327 44.4215L92.1498 43.0477L92.8713 42.8527H92.8709ZM93.3114 38.6362L93.6637 39.482L91.388 41.8465L94.1793 40.7191L94.5315 41.5646L90.2761 43.2836L89.9238 42.4381L92.2012 40.0692L89.407 41.1978L89.056 40.3552L93.3119 38.6362H93.3114ZM89.4464 34.933L86.7381 36.0163L86.2689 35.2386L90.6421 33.6191L91.1174 34.4078L89.061 36.2252L91.6624 35.3116L92.1398 36.1028L88.6043 39.1103L88.1318 38.3273L90.3934 36.5087L87.6349 37.5031L87.2366 36.8433L89.4464 34.933ZM86.4467 31.062C86.7037 30.8703 86.9528 30.7336 87.1964 30.6511C87.4397 30.5679 87.6693 30.5357 87.8852 30.552C88.1016 30.5679 88.3042 30.6324 88.492 30.7425C88.6805 30.8535 88.8496 31.0041 88.998 31.1971C89.1476 31.3905 89.25 31.5925 89.308 31.801C89.3664 32.0103 89.376 32.2208 89.3341 32.4318C89.2943 32.6431 89.2011 32.8524 89.0556 33.0626C88.9093 33.2715 88.7083 33.471 88.4518 33.6628L87.8425 34.1177C87.579 34.3148 87.3228 34.4568 87.0746 34.5437C86.8259 34.6306 86.5901 34.6669 86.368 34.6543C86.1458 34.6404 85.9399 34.5784 85.7476 34.469C85.5565 34.3597 85.3866 34.2083 85.2374 34.0145C85.089 33.8219 84.9863 33.6203 84.9316 33.4102C84.8773 33.1988 84.8719 32.9871 84.9183 32.7729C84.9643 32.557 85.0633 32.3432 85.2154 32.1311C85.3667 31.9181 85.5743 31.7136 85.8383 31.5166L86.4471 31.0616L86.4467 31.062ZM86.3966 32.2522C86.2225 32.3824 86.0829 32.5052 85.978 32.6223C85.8748 32.7394 85.8015 32.8516 85.7588 32.9577C85.7169 33.065 85.7053 33.167 85.7227 33.2658C85.7409 33.3649 85.7853 33.4604 85.8562 33.5526C85.9295 33.6473 86.0112 33.7154 86.1032 33.7587C86.1948 33.8023 86.2988 33.819 86.414 33.8076C86.53 33.7966 86.6593 33.7574 86.8015 33.6901C86.9441 33.6224 87.1024 33.524 87.2768 33.3939L87.891 32.9353C88.0568 32.8112 88.1894 32.6921 88.2893 32.5791C88.3884 32.4664 88.4567 32.3567 88.4949 32.2526C88.5326 32.147 88.5413 32.0458 88.5214 31.9478C88.5011 31.8495 88.4551 31.7532 88.3821 31.6586C88.3109 31.5663 88.2305 31.4986 88.1414 31.455C88.0518 31.4113 87.9515 31.3929 87.8388 31.4015C87.7265 31.4105 87.6013 31.4468 87.4658 31.5109C87.3291 31.5761 87.1774 31.6704 87.0116 31.7944L86.3974 32.2535L86.3966 32.2522ZM85.382 29.5683L85.6978 29.8996L86.9233 28.7673L87.5587 29.4336L84.2046 32.5325L83.1909 31.4692C83.0339 31.3044 82.9157 31.1367 82.8362 30.967C82.757 30.7972 82.7176 30.6283 82.7168 30.4602C82.7156 30.2909 82.7566 30.1248 82.8366 29.9608C82.917 29.7972 83.0397 29.6392 83.2058 29.4858C83.3277 29.3728 83.447 29.283 83.5656 29.2145C83.6845 29.1472 83.8014 29.099 83.9166 29.0692C84.0326 29.0407 84.1466 29.0297 84.2593 29.0362C84.3725 29.0419 84.4848 29.0639 84.5971 29.0994L85.4189 27.2531L85.4513 27.2233L86.1347 27.9398L85.382 29.5687V29.5683ZM85.1342 30.4202L84.7732 30.0416C84.6464 29.9081 84.5063 29.8502 84.3526 29.8669C84.1997 29.8828 84.0476 29.9608 83.8971 30.0999C83.82 30.1709 83.7575 30.2419 83.7098 30.3141C83.6601 30.3859 83.6294 30.4582 83.6149 30.5296C83.6012 30.6006 83.6054 30.6715 83.6282 30.7417C83.6497 30.8123 83.6924 30.8805 83.7558 30.947L84.1342 31.344L85.1342 30.4202ZM83.9054 26.8386L82.7056 25.7512L83.2278 25.193L85.1102 26.899L81.9949 30.2305L81.3119 29.6115L83.9054 26.8386ZM82.827 24.8127L80.0528 28.425L79.0826 27.7028C78.8708 27.5453 78.7051 27.367 78.5841 27.1691C78.463 26.9712 78.3901 26.7615 78.3665 26.5387C78.3429 26.3179 78.369 26.0866 78.4469 25.8463C78.5248 25.6063 78.6566 25.3652 78.8435 25.1224L79.2741 24.5618C79.4606 24.319 79.6599 24.1281 79.8717 23.9889C80.0835 23.851 80.3011 23.7625 80.5257 23.7249C80.7491 23.6878 80.9749 23.7 81.2012 23.7625C81.4279 23.8245 81.6492 23.9359 81.8643 24.0958L82.8266 24.8123L82.827 24.8127ZM79.7793 27.2658L81.6215 24.867L81.3997 24.7017C81.2692 24.6046 81.1465 24.5402 81.033 24.5088C80.9202 24.4777 80.8087 24.4802 80.6989 24.5157C80.5895 24.5512 80.4805 24.6193 80.369 24.7185C80.2592 24.8176 80.1398 24.9494 80.0143 25.1134L79.5799 25.679C79.4531 25.8442 79.3566 25.9931 79.289 26.1249C79.2223 26.2575 79.1862 26.3783 79.1829 26.4905C79.1792 26.6023 79.2074 26.7068 79.2679 26.8055C79.3284 26.903 79.4225 27.0001 79.5497 27.0948L79.7793 27.2658Z" fill="#FEFEFE"/>
<path d="M40.4249 72.8706L47.8901 53.7384H50.6594L58.6137 72.8706H55.6815L53.415 67.0754H45.2887L43.1577 72.8706H40.4249ZM46.0306 65.0129H52.623L50.5914 59.7163C49.976 58.1083 49.5147 56.7855 49.2159 55.7475C48.9673 56.9768 48.6187 58.1932 48.1662 59.4046L46.0306 65.0129Z" fill="#1C3E9C" stroke="#1C3E9C" stroke-width="0.16525" stroke-miterlimit="2.61313"/>
<path d="M57.0873 72.8706L64.5525 53.7384H67.3218L75.2756 72.8706H72.3439L70.0774 67.0754H61.9511L59.8201 72.8706H57.0873ZM62.6929 65.0129H69.2854L67.2538 59.7163C66.6384 58.1083 66.1771 56.7855 65.8783 55.7475C65.6292 56.9768 65.2811 58.1932 64.8285 59.4046L62.6929 65.0129Z" fill="#1C3E9C" stroke="#1C3E9C" stroke-width="0.16525" stroke-miterlimit="2.61313"/>
<path fill-rule="evenodd" clip-rule="evenodd" d="M55.8709 34.8599L55.3612 37.1665C57.4951 34.6535 61.7762 34.5882 62.8931 30.9625C62.9735 32.4028 62.9528 33.9178 62.2259 35.9538C62.7937 35.445 63.487 35.0292 64.4564 34.8175C63.3042 36.1044 62.8127 37.6251 62.9669 39.1099C63.5525 38.615 64.2131 38.1645 64.9902 38.0845C62.7845 40.8322 64.1215 43.3619 61.6593 45.5036C54.3661 51.2025 49.4617 39.919 55.8713 34.8603L55.8709 34.8599Z" fill="#F16136"/>
<path fill-rule="evenodd" clip-rule="evenodd" d="M56.6509 40.7832L56.3388 42.3027C57.6451 40.8889 60.266 40.6306 60.9494 38.5909C60.9983 39.4012 60.9859 40.2536 60.5408 41.3989C60.8881 41.1125 61.3129 40.8787 61.9063 40.7595C61.201 41.4834 60.9001 42.339 60.9946 43.1742C61.3531 42.896 61.7576 42.6422 62.2329 42.5973C60.8827 44.1429 61.6341 45.3661 60.1267 46.571C58.2759 47.4434 56.4408 47.0962 55.5145 46.3943C53.9885 45.2376 54.4747 42.3618 56.6509 40.7832Z" fill="#F5D776"/>
<path fill-rule="evenodd" clip-rule="evenodd" d="M56.0541 49.8499V72.443C54.8634 72.7209 54.144 73.4227 53.7465 74.4146L62.3697 74.3375C61.9809 73.4619 61.1811 72.8388 60.041 72.4247C60.0725 64.7811 60.0037 57.389 60.0352 49.7455C61.2109 49.222 62.6561 48.1831 63.1608 45.746C60.2871 46.4727 56.4797 46.7412 53.0213 45.7501C53.1448 47.9265 55.098 49.5015 56.0545 49.8495L56.0541 49.8499Z" fill="url(#paint0_linear_3_4)" stroke="#A45E4D" stroke-width="0.153417" stroke-miterlimit="2.61313"/>
<path d="M73.1704 52.9148H71.9995L71.9888 52.2273H73.0791C73.2295 52.2237 73.3691 52.1968 73.498 52.1467C73.6305 52.0966 73.7362 52.0249 73.8149 51.9319C73.8973 51.8352 73.9385 51.717 73.9385 51.5774C73.9385 51.3983 73.908 51.2569 73.8472 51.153C73.7863 51.0492 73.6842 50.974 73.541 50.9275C73.4014 50.8809 73.2098 50.8576 72.9663 50.8576H72.2358V54.7302H71.4785V50.1755H72.9663C73.3208 50.1755 73.627 50.2256 73.8848 50.3259C74.1426 50.4262 74.3413 50.5783 74.481 50.7824C74.6206 50.983 74.6904 51.2372 74.6904 51.5451C74.6904 51.7385 74.6457 51.9122 74.5562 52.0661C74.4666 52.2201 74.3359 52.3526 74.1641 52.4636C73.9922 52.5746 73.7827 52.6641 73.5356 52.7321C73.5249 52.7321 73.5124 52.7447 73.498 52.7697C73.4873 52.7912 73.4766 52.802 73.4658 52.802C73.4049 52.8378 73.3656 52.8646 73.3477 52.8825C73.3333 52.8969 73.3172 52.9058 73.2993 52.9094C73.285 52.913 73.242 52.9148 73.1704 52.9148ZM73.1167 52.9148L73.2241 52.4314C73.7791 52.4314 74.1569 52.5495 74.3574 52.7859C74.5615 53.0186 74.6636 53.314 74.6636 53.6721V53.9621C74.6636 54.0946 74.6707 54.2217 74.6851 54.3435C74.6994 54.4616 74.7227 54.5619 74.7549 54.6443V54.7302H73.9761C73.9403 54.6371 73.9188 54.5046 73.9116 54.3327C73.908 54.1609 73.9062 54.0355 73.9062 53.9568V53.6775C73.9062 53.4161 73.8454 53.2245 73.7236 53.1027C73.6055 52.9774 73.4032 52.9148 73.1167 52.9148ZM69.835 52.5173C69.835 52.9935 69.9173 53.4375 70.082 53.8493C70.2467 54.2611 70.4759 54.621 70.7695 54.9289C71.0632 55.2369 71.4033 55.4768 71.79 55.6486C72.1768 55.8205 72.5903 55.9065 73.0308 55.9065C73.4712 55.9065 73.883 55.8205 74.2661 55.6486C74.6528 55.4768 74.9912 55.2369 75.2812 54.9289C75.5749 54.621 75.804 54.2611 75.9688 53.8493C76.1335 53.4375 76.2158 52.9935 76.2158 52.5173C76.2158 52.0375 76.1335 51.5935 75.9688 51.1853C75.804 50.7771 75.5749 50.4208 75.2812 50.1164C74.9912 49.8085 74.6528 49.5704 74.2661 49.4021C73.883 49.2302 73.4712 49.1443 73.0308 49.1443C72.5903 49.1443 72.1768 49.2302 71.79 49.4021C71.4033 49.5704 71.0632 49.8085 70.7695 50.1164C70.4759 50.4208 70.2467 50.7771 70.082 51.1853C69.9173 51.5935 69.835 52.0375 69.835 52.5173ZM69.2173 52.5173C69.2173 51.948 69.3158 51.4198 69.5127 50.9328C69.7096 50.4458 69.9836 50.0215 70.3345 49.6599C70.6854 49.2946 71.09 49.0118 71.5483 48.8112C72.0103 48.6071 72.5044 48.5051 73.0308 48.5051C73.5571 48.5051 74.0495 48.6071 74.5078 48.8112C74.9697 49.0118 75.3743 49.2946 75.7217 49.6599C76.0726 50.0215 76.3465 50.4458 76.5435 50.9328C76.7404 51.4198 76.8389 51.948 76.8389 52.5173C76.8389 53.0866 76.7404 53.6148 76.5435 54.1018C76.3465 54.5888 76.0726 55.0166 75.7217 55.3855C75.3743 55.7507 74.9697 56.0354 74.5078 56.2395C74.0495 56.4436 73.5571 56.5456 73.0308 56.5456C72.5044 56.5456 72.0103 56.4436 71.5483 56.2395C71.09 56.0354 70.6854 55.7507 70.3345 55.3855C69.9836 55.0166 69.7096 54.5888 69.5127 54.1018C69.3158 53.6148 69.2173 53.0866 69.2173 52.5173Z" fill="#1C3E9C"/>
</g>
<defs>
<linearGradient id="paint0_linear_3_4" x1="57.8465" y1="53.412" x2="58.3202" y2="66.748" gradientUnits="userSpaceOnUse">
<stop stop-color="#EC9848"/>
<stop offset="1" stop-color="#814B3E"/>
</linearGradient>
<clipPath id="clip0_3_4">
<rect width="106.008" height="91.8733" fill="white" transform="translate(2.49618 2.49618)"/>
</clipPath>
</defs>
</svg>
