<?xml version="1.0" encoding="UTF-8"?>
<!DOCTYPE svg PUBLIC "-//W3C//DTD SVG 1.1//EN" "http://www.w3.org/Graphics/SVG/1.1/DTD/svg11.dtd">
<!-- Creator: CorelDRAW 2020 (64-Bit Evaluation Version) -->
<svg xmlns="http://www.w3.org/2000/svg" xml:space="preserve" width="1.89333in" height="1.66667in" version="1.1" style="shape-rendering:geometricPrecision; text-rendering:geometricPrecision; image-rendering:optimizeQuality; fill-rule:evenodd; clip-rule:evenodd"
viewBox="0 0 255788 225166"
 xmlns:xlink="http://www.w3.org/1999/xlink"
 xmlns:xodm="http://www.corel.com/coreldraw/odm/2003">
 <defs>
  <style type="text/css">
   <![CDATA[
    .str0 {stroke:#1C3E9C;stroke-width:3753;stroke-miterlimit:2.61313}
    .str2 {stroke:#A45E4D;stroke-width:376;stroke-miterlimit:2.61313}
    .str1 {stroke:#1C3E9C;stroke-width:405;stroke-miterlimit:2.61313}
    .fil8 {fill:none}
    .fil1 {fill:#FEFEFE}
    .fil4 {fill:#F16136}
    .fil5 {fill:#F5D776}
    .fil0 {fill:#1C3E9C}
    .fil3 {fill:#FEFEFE;fill-rule:nonzero}
    .fil7 {fill:black;fill-rule:nonzero}
    .fil2 {fill:#1C3E9C;fill-rule:nonzero}
    .fil6 {fill:url(#id0)}
   ]]>
  </style>
  <linearGradient id="id0" gradientUnits="userSpaceOnUse" x1="133556" y1="124786" x2="134735" y2="157469">
   <stop offset="0" style="stop-opacity:1; stop-color:#EC9848"/>
   <stop offset="1" style="stop-opacity:1; stop-color:#814B3E"/>
  </linearGradient>
 </defs>
 <g id="Layer_x0020_1">
  <metadata id="CorelCorpID_0Corel-Layer"/>
  <path class="fil0" d="M93068 32876l-1308 2340 -2638 -1844c-746,950 -3297,13742 -4284,16449 -1473,4042 -5935,13643 -6294,14826 596,-54 1040,-894 1709,-1754l12394 -14086c2142,-2195 5164,-5245 7846,-7358l8453 -6749c10461,-7927 26423,-15943 42332,-17991 -4865,776 -16362,5978 -20782,8403 -8555,4693 -18084,11528 -25301,18352 -4621,4371 -19151,19381 -20460,23345 22048,2456 53114,-769 71363,-12909 23849,-15864 18231,-28146 39298,-35464 2938,-1021 5681,-1421 8884,-1976 -3031,-1536 -16500,-4620 -20647,-5132 -310,-1706 757,-2198 1068,-3558 -3268,-2649 -12866,-3078 -17861,-2513 -2224,251 -3909,873 -5863,1212l23 -1653 3 -708c-893,714 -9424,4209 -12081,5509l-7007 2817c-1450,586 -685,670 -1864,1026l-1312 508c-1305,749 -1642,626 -3165,1195 -1472,550 -2920,1160 -4296,1857 -3575,1813 -1789,703 -4135,1736l-6546 2813c-4356,2012 -13474,5533 -16811,7204 -709,355 -1207,613 -1954,908l-7336 3224c-222,108 -902,292 -1298,404l-129 -436zm0 0l129 436c397,-112 1076,-296 1298,-404l7336 -3224c747,-296 1245,-554 1954,-908 3337,-1671 12455,-5192 16811,-7204l6546 -2813c2347,-1033 561,77 4135,-1736 1375,-698 2823,-1307 4296,-1857 1522,-569 1860,-446 3165,-1195l1312 -508c1179,-356 413,-440 1864,-1026l7007 -2817c2657,-1300 11188,-4796 12081,-5509l-3 708 345 -2105 -4688 -826 -7879 0c-61,38 -160,3 -198,87 -38,85 -148,65 -202,80l-3420 536c-11054,2482 -7939,3441 -8914,216 -956,-504 -3624,578 -4794,1003 -3430,1247 -7432,3024 -10082,5605 -661,643 -910,1195 -1645,1509 -910,-1071 -925,-2614 -1716,-3830 -2493,888 -8206,7059 -9975,9823 -749,1172 -554,1201 -1303,1733 -1002,-501 -1133,-1098 -2206,-1669 -3455,1121 -10343,12670 -11254,15894z"/>
  <path class="fil0" d="M15329 41719l0 17c13852,1467 11846,10261 23621,18179 9032,6073 22293,7453 35116,6595 -72,-1304 -5269,-6935 -6027,-7747 -5342,-5736 -12677,-11483 -20110,-14692 -1107,-478 -4429,-1544 -5066,-1961 2447,20 8368,2216 10426,3212 6013,2908 11522,6806 16093,11366 1367,1365 5651,5577 6409,7333 671,-144 49,322 586,-216 14,-14 10,-95 29,-137 -356,-1199 -917,-2224 -1381,-3315 -1392,-3265 -2054,-6701 -2812,-10243 -1174,217 -433,258 -1518,607l-450 -749c-622,-443 -1411,-562 -2109,-858l-6151 -2679c-3980,-1880 -9259,-3723 -12433,-5240 -3097,-1480 -9521,-4283 -12404,-5224 -215,326 -415,-319 -386,789 -3510,-590 -8638,-1375 -11589,685l479 1713c-3217,518 -7451,1587 -10323,2566zm21433 -4964c-29,-1108 171,-463 386,-789 2883,941 9307,3743 12404,5224 3175,1517 8454,3360 12433,5240l6151 2679c698,297 1488,416 2109,858 -353,-1783 -3954,-7152 -5639,-7980 -882,444 -354,356 -1355,728 -780,-1727 -3543,-4966 -5341,-5503l-555 1580c-1150,-329 -2819,-2312 -6723,-3585 -1982,-647 -1306,-329 -1963,716 -1377,-215 -2578,-948 -5630,-1229 -2125,-196 -4589,-176 -6557,149l279 1913z"/>
  <path class="fil0 str0" d="M183066 38866c29670,17028 49655,49023 49655,85686 0,54525 -44201,98726 -98726,98726 -54525,0 -98727,-44201 -98727,-98726 0,-19070 5412,-36874 14777,-51969l28009 -689c-12950,13753 -20889,32277 -20889,52658 0,42432 34398,76830 76830,76830 42432,0 76830,-34398 76830,-76830 0,-32021 -19592,-59463 -47440,-71003l19681 -14683z"/>
  <path class="fil1" d="M166075 217945c-10059,3454 -20849,5333 -32080,5333 -54525,0 -98727,-44201 -98727,-98726 0,-19070 5412,-36874 14777,-51969l28009 -689c-12950,13753 -20889,32277 -20889,52658 0,42432 34398,76830 76830,76830 8943,0 17527,-1533 25510,-4342l6570 20905z"/>
  <path class="fil2" d="M67110 182581c-620,471 -1220,806 -1809,1008 -587,204 -1139,285 -1662,243 -522,-38 -1011,-196 -1464,-465 -455,-272 -863,-641 -1222,-1114 -360,-474 -608,-969 -748,-1480 -141,-513 -164,-1029 -64,-1546 96,-518 321,-1031 672,-1546 352,-513 836,-1002 1456,-1472l1469 -1116c636,-483 1254,-831 1853,-1045 599,-213 1169,-302 1705,-272 536,34 1033,185 1498,453 461,267 871,638 1231,1113 359,472 607,966 739,1480 132,518 144,1037 34,1563 -112,529 -350,1053 -716,1573 -365,522 -865,1023 -1502,1507l-1469 1116zm120 -2917c420,-319 757,-621 1009,-907 249,-287 426,-562 529,-823 101,-263 129,-514 86,-755 -44,-242 -151,-478 -322,-703 -176,-232 -374,-398 -596,-504 -221,-107 -472,-148 -750,-119 -280,26 -593,123 -935,288 -344,167 -726,408 -1146,727l-1482 1125c-399,304 -719,597 -960,874 -238,276 -403,545 -496,801 -91,258 -111,506 -63,747 49,240 160,477 336,708 172,226 367,391 582,499 216,107 458,151 731,130 270,-22 572,-111 900,-268 330,-160 696,-392 1096,-695l1481 -1126zm4509 7957l-2366 -2557 -3322 3075 -1521 -1644 8146 -7538 4172 4508 -1371 1269 -2651 -2864 -2087 1931 2366 2557 -1366 1264zm78439 18825l-2705 449 1514 9105 -2217 369 -1514 -9105 -2664 443 -306 -1842 7586 -1262 306 1843zm9010 2631c189,755 262,1439 217,2059 -43,620 -186,1161 -429,1624 -240,465 -578,853 -1004,1164 -428,312 -929,542 -1504,687 -578,145 -1129,179 -1655,107 -528,-71 -1011,-253 -1447,-548 -438,-293 -822,-700 -1158,-1225 -333,-526 -593,-1163 -782,-1917l-449 -1789c-195,-775 -273,-1480 -234,-2114 39,-635 181,-1193 420,-1674 241,-479 576,-878 1004,-1199 428,-319 930,-550 1507,-695 576,-145 1128,-179 1652,-99 528,82 1010,274 1450,582 443,311 831,736 1166,1277 337,540 602,1198 796,1972l449 1789zm-2636 -1256c-129,-512 -274,-940 -438,-1285 -166,-342 -349,-613 -549,-809 -202,-196 -421,-321 -660,-376 -239,-55 -498,-49 -773,20 -283,71 -513,188 -698,349 -185,162 -322,377 -405,644 -85,268 -119,593 -102,972 18,381 90,828 219,1340l453 1804c123,487 265,896 426,1227 160,327 343,585 543,770 202,185 422,302 662,352 241,49 502,40 784,-31 276,-69 504,-183 688,-339 184,-156 319,-362 407,-620 86,-257 122,-570 106,-933 -17,-366 -87,-794 -209,-1281l-454 -1804zm-74887 -20229l-3450 7544 6692 -4900 2268 1850 -7015 8601 -1742 -1421 1897 -2326 3085 -3457 -6541 4513 -1182 -964 3104 -7316 -2766 3717 -1897 2326 -1736 -1416 7015 -8601 2269 1849zm5847 14946l-2616 -1581 -1683 1636 -2029 -1227 8710 -7704 1756 1063 -2758 11302 -2048 -1239 668 -2250zm-1230 -2927l1774 1073 1158 -3921 -2932 2848zm13434 1572l-2430 -1271 -4279 8179 -1992 -1042 4279 -8179 -2392 -1252 866 -1655 6814 3565 -866 1655zm4016 6331l-3212 -1367 -1153 2707 3801 1619 -729 1711 -5862 -2496 4348 -10211 5848 2490 -732 1719 -3787 -1613 -1028 2413 3213 1368 -707 1661zm4404 2090l-1067 -319 -1162 3886 -2146 -642 3181 -10633 3425 1024c531,159 983,370 1358,635 374,264 665,573 873,929 211,357 330,759 365,1204 33,445 -28,929 -185,1455 -116,387 -254,722 -417,1011 -164,287 -348,530 -553,732 -207,202 -431,363 -674,486 -244,126 -504,215 -783,277l561 4908 -31 102 -2308 -690 -435 -4364zm-532 -2106l1219 365c428,128 793,82 1092,-140 299,-220 520,-570 663,-1046 72,-244 116,-470 127,-681 15,-212 -10,-402 -68,-571 -59,-166 -154,-312 -289,-433 -131,-124 -305,-216 -519,-280l-1279 -382 -948 3170zm6721 7883l-2173 -541 2682 -10770 2174 541 -2683 10770zm7493 -1012l-3028 -422 -900 2168 -2348 -327 4964 -10514 2032 283 1925 11474 -2371 -330 -274 -2331zm-2286 -2204l2054 286 -482 -4059 -1571 3774zm8362 3145l3930 189 -90 1858 -6167 -297 533 -11086 2238 107 -444 9228zm9788 -994c-2,-192 -23,-366 -61,-516 -39,-154 -113,-295 -230,-429 -116,-134 -282,-262 -494,-386 -212,-125 -495,-254 -848,-392 -418,-153 -819,-327 -1198,-525 -383,-198 -719,-435 -1009,-707 -290,-272 -523,-589 -699,-950 -174,-362 -266,-782 -272,-1266 -6,-463 77,-885 244,-1273 166,-385 406,-715 715,-988 309,-274 675,-487 1103,-644 427,-154 902,-236 1420,-243 533,-6 1016,70 1447,236 431,163 802,395 1107,693 305,301 541,656 711,1073 167,419 257,878 263,1381l-2235 29c-3,-233 -29,-447 -81,-642 -50,-196 -128,-362 -233,-501 -109,-136 -243,-244 -405,-322 -165,-76 -361,-112 -590,-109 -213,3 -397,39 -550,106 -155,67 -281,160 -381,276 -101,115 -177,252 -224,411 -50,157 -71,327 -69,503 2,182 44,348 123,493 80,147 194,284 341,410 147,122 323,240 530,349 207,110 437,215 686,319 523,184 976,385 1366,609 388,221 714,477 978,762 262,288 461,611 593,973 130,360 201,770 206,1228 7,487 -68,922 -224,1307 -153,382 -378,707 -671,974 -293,264 -653,469 -1072,616 -420,146 -892,222 -1423,229 -476,6 -945,-60 -1408,-199 -462,-140 -876,-356 -1239,-650 -365,-297 -662,-671 -889,-1125 -228,-455 -344,-997 -352,-1626l2247 -31c5,336 43,621 111,852 71,233 172,422 310,566 137,141 305,243 503,305 199,60 431,88 694,85 213,-3 395,-37 544,-101 148,-67 269,-154 361,-265 95,-111 158,-241 198,-395 39,-152 58,-319 55,-496zm-85606 -127655l1365 -2735 -1767 -1545 1059 -2121 8382 8058 -917 1837 -11489 -1836 1069 -2141 2297 483zm2818 -1463l-926 1855 4001 838 -3075 -2693zm-6494 4105l10374 3946 -1044 2742c-227,598 -535,1105 -918,1522 -385,416 -829,729 -1337,936 -504,206 -1065,305 -1683,290 -618,-15 -1274,-156 -1972,-422l-1609 -612c-698,-265 -1282,-596 -1752,-993 -468,-395 -823,-838 -1063,-1333 -239,-492 -363,-1023 -369,-1590 -7,-568 106,-1157 337,-1765l1035 -2721zm7831 5375l-6889 -2620 -238 627c-141,370 -209,697 -206,982 4,283 85,539 242,769 157,230 391,435 700,626 307,186 699,371 1169,549l1624 618c474,180 890,303 1246,368 357,63 666,64 932,-4 265,-69 493,-205 683,-414 189,-206 354,-492 491,-852l246 -649zm-8775 6996l7291 3889 -648 2415 -9891 -5965 604 -2254 11543 -194 -644 2400 -8255 -291zm-2945 9434l543 -3008 -2130 -988 421 -2332 10306 5382 -364 2020 -11543 1462 426 -2356 2340 -180zm2295 -2195l-368 2040 4076 -319 -3708 -1721zm-5651 13513l159 -2234 7493 -2753 -7261 -516 159 -2234 11071 788 -159 2234 -7502 2760 7269 518 -159 2226 -11071 -788zm3831 9247c-1265,-37 -2230,-380 -2889,-1027 -660,-647 -997,-1566 -1014,-2759 -9,-614 85,-1164 284,-1651 196,-487 493,-897 889,-1232 398,-336 889,-595 1480,-778 591,-185 1271,-280 2044,-291l1889 -26c772,-11 1457,68 2054,241 598,172 1098,426 1504,760 408,336 715,743 930,1223 212,478 321,1021 330,1627 16,1207 -308,2130 -974,2769 -668,636 -1633,1006 -2899,1110l-31 -2248c397,-15 728,-54 995,-118 265,-61 477,-155 631,-280 158,-122 267,-281 330,-480 65,-196 93,-438 89,-727 -5,-302 -57,-556 -162,-765 -104,-210 -271,-379 -499,-508 -228,-127 -526,-222 -896,-279 -370,-61 -821,-85 -1354,-78l-1904 27c-520,7 -962,39 -1325,94 -366,57 -664,149 -891,280 -230,131 -397,300 -501,509 -103,210 -155,476 -150,796 4,273 36,510 98,704 60,194 166,354 316,479 147,126 352,219 613,280 261,64 589,99 985,109l31 2240zm1972 6632l-363 -3472 -2926 305 429 4109 -1850 193 -661 -6336 11039 -1152 660 6321 -1858 194 -427 -4093 -2608 272 362 3473 -1796 187zm7146 3763l-7408 3733 8286 358 615 2862 -10852 2329 -472 -2198 2935 -630 4568 -771 -7926 -565 -320 -1490 6995 -3772 -4482 1172 -2935 630 -471 -2190 10852 -2329 614 2862zm-2224 14676l-1241 -3264 -2750 1046 1469 3862 -1739 661 -2265 -5956 10373 -3946 2261 5941 -1747 664 -1463 -3847 -2451 932 1241 3263 -1688 643zm-743 10541l-881 -2059 5405 -5877 -6693 2863 -881 -2059 10204 -4365 881 2059 -5408 5887 6700 -2866 878 2052 -10204 4365zm12878 3363l-1440 -2335 -7857 4845 -1180 -1914 7857 -4844 -1417 -2299 1590 -980 4036 6546 -1590 981z"/>
  <path class="fil3" d="M172974 206319c-83,-173 -174,-323 -272,-443 -99,-123 -226,-221 -388,-294 -162,-72 -365,-120 -611,-144 -245,-24 -556,-24 -935,-2 -444,36 -880,45 -1308,24 -431,-20 -835,-94 -1212,-220 -377,-126 -722,-316 -1033,-571 -310,-255 -569,-599 -777,-1036 -200,-419 -301,-837 -312,-1258 -10,-419 70,-820 237,-1196 165,-379 409,-725 732,-1047 324,-319 721,-591 1188,-814 481,-230 951,-362 1413,-391 460,-32 893,23 1295,166 404,145 767,369 1095,677 327,311 601,691 816,1144l-2017 962c-101,-212 -214,-394 -343,-548 -127,-159 -267,-277 -421,-358 -156,-78 -323,-120 -503,-123 -181,0 -374,49 -581,147 -192,92 -344,202 -455,327 -113,126 -189,263 -231,410 -43,147 -55,303 -31,467 20,164 72,326 148,486 78,164 186,298 318,396 135,101 295,177 481,229 186,49 395,82 628,95 234,13 487,13 756,2 552,-52 1047,-59 1496,-18 445,38 848,134 1207,283 358,152 674,362 946,635 268,273 504,616 702,1029 210,439 323,866 343,1280 20,412 -48,802 -202,1166 -156,362 -396,699 -716,1007 -320,308 -718,576 -1196,804 -430,205 -884,341 -1363,408 -478,67 -945,44 -1397,-72 -456,-116 -881,-331 -1278,-649 -397,-318 -730,-762 -1000,-1330l2029 -968c144,303 297,547 456,728 162,182 332,311 518,384 184,71 379,94 585,67 205,-29 428,-100 665,-213 193,-92 343,-199 453,-320 106,-123 179,-253 217,-392 39,-140 43,-285 14,-441 -28,-154 -80,-314 -156,-474zm5091 -12129l3967 6510c336,551 547,1067 630,1554 85,485 64,936 -60,1352 -124,416 -340,802 -652,1150 -311,351 -689,664 -1140,939 -460,280 -919,477 -1374,594 -455,119 -896,134 -1323,54 -427,-81 -837,-270 -1229,-568 -394,-296 -756,-721 -1092,-1272l-3967 -6509 1926 -1174 3967 6509c190,313 372,551 542,715 170,164 341,270 510,317 170,48 342,47 516,-2 174,-51 361,-134 556,-253 196,-119 353,-246 480,-378 123,-133 202,-285 234,-456 34,-170 15,-369 -50,-597 -68,-226 -196,-496 -387,-810l-3967 -6509 1913 -1166zm9411 3457c-107,-160 -220,-294 -335,-398 -116,-107 -256,-185 -427,-233 -171,-48 -379,-64 -625,-52 -246,13 -553,60 -924,137 -434,101 -864,175 -1290,218 -429,44 -840,30 -1231,-39 -391,-69 -760,-206 -1106,-412 -344,-207 -651,-508 -921,-910 -259,-384 -421,-783 -494,-1198 -71,-413 -52,-822 57,-1219 107,-398 297,-778 569,-1142 273,-363 626,-692 1055,-982 442,-298 888,-498 1340,-596 450,-100 887,-109 1306,-27 420,84 813,252 1183,507 370,259 696,595 977,1011l-1853 1250c-131,-194 -270,-358 -420,-492 -149,-138 -305,-233 -470,-292 -165,-55 -336,-71 -515,-48 -180,27 -363,104 -553,232 -177,119 -311,251 -402,390 -93,141 -148,288 -168,439 -20,152 -9,308 39,467 44,159 119,312 218,458 102,151 228,268 373,345 148,79 318,131 510,155 190,22 402,24 635,2 233,-22 483,-60 748,-110 538,-133 1028,-213 1477,-239 446,-28 858,7 1236,102 376,98 720,258 1030,489 305,230 589,535 845,914 272,403 448,808 528,1216 81,404 71,799 -28,1183 -101,381 -289,749 -559,1102 -271,352 -624,675 -1064,971 -395,266 -824,468 -1287,605 -463,137 -928,183 -1392,136 -469,-48 -921,-198 -1360,-454 -440,-256 -834,-646 -1187,-1168l1864 -1256c188,278 376,496 560,652 187,157 374,259 569,304 192,43 388,36 588,-20 199,-60 408,-163 627,-310 177,-120 310,-247 401,-383 87,-137 140,-277 156,-420 19,-144 0,-289 -51,-439 -50,-149 -126,-298 -224,-445zm4342 -11572l-2125 1733 5832 7154 -1742 1420 -5833 -7154 -2094 1706 -1180 -1448 5960 -4859 1181 1448zm8060 1451l-2158 2166 1191 2023 -1672 1679 -5420 -10287 1449 -1455 10326 5359 -1689 1696 -2028 -1182zm-3136 501l1463 -1469 -3535 -2055 2072 3524zm8936 -3725l-1419 1733 -8588 -7030 1419 -1733 8588 7030zm5922 -7581l-1353 1785 -7782 -1785 5801 4397 -1353 1785 -8845 -6704 1353 -1786 7792 1783 -5807 -4402 1348 -1779 8845 6704zm1799 -7366l-1581 2616 1637 1682 -1225 2029 -7708 -8705 1062 -1757 11303 2754 -1238 2048 -2250 -667zm-2927 1232l1072 -1774 -3922 -1157 2850 2931zm6656 -3639l-10036 -4738 1464 -3101c237,-502 505,-924 804,-1269 298,-346 624,-603 982,-771 357,-168 743,-245 1156,-225 413,16 853,138 1321,358 230,109 440,237 630,384 186,148 348,317 482,507 137,192 240,401 316,630 74,228 109,477 101,744 195,-224 408,-389 644,-498 232,-109 475,-170 724,-188 250,-16 502,4 759,62 256,61 506,147 748,261 974,460 1583,1076 1828,1845 243,770 124,1661 -355,2678l-1569 3322zm-3405 -4085l2680 1265 612 -1297c93,-197 140,-382 142,-552 3,-171 -34,-329 -110,-474 -73,-144 -181,-276 -317,-389 -136,-115 -299,-219 -488,-308 -426,-201 -803,-281 -1124,-240 -324,42 -573,252 -751,629l-644 1364zm-1475 -696l497 -1054c191,-405 228,-756 111,-1050 -118,-295 -378,-535 -782,-726 -454,-214 -824,-277 -1109,-188 -284,90 -524,343 -720,757l-507 1075 2510 1185zm7452 -6050l1403 -3675 1738 663 -2203 5768 -10368 -3959 799 -2093 8630 3296zm228 -10947l-863 3383 2851 727 1022 -4003 1802 460 -1575 6174 -10754 -2744 1571 -6158 1810 462 -1017 3988 2540 648 864 -3383 1749 447zm2981 -4230c-321,-32 -605,-101 -858,-207 -254,-105 -483,-243 -691,-412 -209,-167 -404,-364 -586,-588 -182,-225 -364,-476 -546,-747 -467,234 -905,414 -1313,536 -407,124 -821,165 -1240,124 -440,-43 -833,-144 -1178,-306 -342,-162 -632,-370 -864,-626 -234,-253 -404,-552 -512,-891 -105,-340 -140,-708 -101,-1107 38,-381 141,-716 308,-1008 170,-291 381,-535 638,-727 256,-191 545,-331 870,-419 322,-89 657,-116 1007,-82 515,50 963,204 1340,461 378,256 702,597 972,1020l408 615 2120 -1225c-246,-111 -506,-202 -778,-275 -272,-74 -568,-123 -882,-154l178 -1815c663,65 1275,190 1840,374 565,180 1067,447 1506,798l2136 -1232 -238 2434 -618 356c220,361 370,733 450,1116 80,379 101,786 59,1215 -47,474 -166,896 -359,1262 -190,369 -437,671 -739,908 -301,240 -652,410 -1049,514 -400,105 -826,134 -1279,89zm1662 -3061c39,-401 -56,-789 -283,-1170l-2636 1504 32 47c228,181 451,308 669,377 218,71 430,115 637,135 213,21 412,14 598,-22 189,-34 352,-94 493,-174 141,-80 253,-179 340,-298 85,-120 135,-254 149,-399zm-6748 -148c212,21 431,-5 655,-77 224,-72 462,-177 715,-309l-239 -383c-88,-143 -177,-256 -264,-345 -88,-87 -181,-156 -276,-205 -95,-51 -190,-87 -290,-110 -99,-23 -205,-41 -316,-52 -111,-11 -227,-4 -344,19 -117,20 -220,59 -312,113 -94,56 -171,124 -237,212 -63,86 -102,186 -114,303 -12,121 6,231 57,327 47,96 120,179 213,251 93,69 202,127 331,168 130,44 270,73 421,88zm7915 -16918c124,118 268,276 431,474 160,202 312,450 455,747 141,298 261,650 356,1051 99,402 145,865 141,1388 -5,619 -107,1178 -304,1675 -195,496 -490,920 -886,1274 -393,354 -889,623 -1486,809 -600,186 -1304,277 -2112,271l-1873 -14c-810,-6 -1511,-105 -2106,-291 -597,-186 -1092,-450 -1485,-791 -393,-341 -686,-754 -875,-1242 -189,-485 -281,-1032 -277,-1636 5,-630 87,-1173 248,-1630 160,-456 397,-835 713,-1139 315,-302 702,-533 1163,-692 462,-160 991,-261 1592,-300l-16 2180c-352,26 -644,73 -878,143 -235,65 -422,161 -561,285 -141,124 -244,277 -305,455 -64,179 -94,395 -95,643 -3,296 47,552 150,771 103,220 268,403 498,550 230,147 529,256 898,329 366,75 814,113 1336,116l1889 14c531,4 976,-32 1344,-107 367,-76 665,-194 897,-353 232,-157 403,-359 509,-603 106,-241 160,-530 162,-860 1,-198 -13,-367 -43,-505 -30,-141 -66,-261 -107,-360 -44,-99 -87,-183 -134,-246 -44,-63 -82,-118 -113,-165l-2034 -15 -12 1572 -1691 -12 28 -3819 4582 33zm-3323 -4506l133 1106 4027 -484 268 2224 -11020 1325 -427 -3550c-66,-550 -53,-1049 40,-1498 93,-448 261,-838 504,-1171 243,-336 564,-605 958,-815 395,-207 863,-345 1408,-411 401,-48 764,-55 1093,-21 329,37 626,109 893,215 267,109 505,251 714,425 213,174 399,377 566,608l4278 -2472 106 -13 288 2392 -3828 2139zm-1720 1328l-152 -1263c-53,-445 -241,-760 -564,-947 -321,-186 -730,-250 -1223,-190 -253,30 -478,81 -676,154 -201,71 -364,170 -497,290 -129,121 -224,266 -282,438 -61,170 -77,366 -49,588l159 1325 3285 -395zm-790 -11753l657 3429 2890 -553 -777 -4058 1827 -349 1199 6258 -10901 2088 -1195 -6242 1835 -352 774 4042 2576 -493 -657 -3429 1773 -340zm-1838 -6975l925 3367 2838 -779 -1095 -3984 1794 -493 1687 6144 -10703 2939 -1683 -6129 1802 -494 1090 3968 2529 -694 -924 -3367 1741 -478zm1063 -10334l850 2073 -5491 5795 6735 -2763 850 2072 -10268 4213 -850 -2072 5495 -5806 -6742 2766 -847 -2065 10269 -4213zm-9326 -9076l-6535 2655 -1132 -1906 10552 -3969 1147 1933 -4962 4454 6277 -2239 1152 1939 -8531 7371 -1140 -1919 5457 -4457 -6656 2437 -961 -1617 5332 -4682zm-7238 -9487c620,-470 1221,-805 1809,-1007 587,-204 1141,-283 1662,-243 522,39 1011,197 1464,467 455,272 863,641 1221,1114 361,474 608,969 748,1480 141,513 164,1029 63,1546 -96,518 -321,1031 -672,1546 -353,512 -838,1001 -1457,1471l-1470 1115c-636,483 -1254,831 -1853,1044 -600,213 -1169,302 -1705,271 -536,-34 -1033,-186 -1497,-454 -461,-268 -871,-639 -1231,-1114 -358,-472 -606,-966 -738,-1481 -131,-518 -144,-1037 -32,-1562 111,-529 350,-1053 717,-1573 365,-522 866,-1023 1503,-1506l1469 -1115zm-121 2917c-420,319 -757,620 -1010,907 -249,287 -426,562 -529,822 -101,263 -129,513 -87,755 44,243 151,477 322,703 177,232 374,399 596,505 221,107 472,148 750,120 280,-27 592,-123 935,-288 344,-166 726,-407 1147,-726l1482 -1124c400,-304 720,-596 961,-873 239,-276 404,-545 496,-800 91,-259 112,-507 64,-747 -49,-241 -160,-477 -336,-709 -172,-226 -366,-392 -581,-499 -216,-107 -458,-152 -730,-131 -271,22 -573,111 -900,268 -330,160 -696,391 -1096,695l-1482 1125zm-2448 -6578l762 812 2957 -2775 1533 1633 -8093 7595 -2446 -2606c-379,-404 -664,-815 -856,-1231 -191,-416 -286,-830 -288,-1242 -3,-415 96,-822 289,-1224 194,-401 490,-788 891,-1164 294,-277 582,-497 868,-665 287,-165 569,-283 847,-356 280,-70 555,-97 827,-81 273,14 544,68 815,155l1983 -4525 78 -73 1649 1756 -1816 3992zm-598 2088l-871 -928c-306,-327 -644,-469 -1015,-428 -369,39 -736,230 -1099,571 -186,174 -337,348 -452,525 -120,176 -194,353 -229,528 -33,174 -23,348 32,520 52,173 155,340 308,503l913 973 2413 -2264zm-2965 -8778l-2895 -2665 1260 -1368 4542 4181 -7517 8165 -1648 -1517 6258 -6796zm-2602 -4965l-6694 8853 -2341 -1770c-511,-386 -911,-823 -1203,-1308 -292,-485 -468,-999 -525,-1545 -57,-541 6,-1108 194,-1697 188,-588 506,-1179 957,-1774l1039 -1374c450,-595 931,-1063 1442,-1404 511,-338 1036,-555 1578,-647 539,-91 1084,-61 1630,92 547,152 1081,425 1600,817l2322 1756zm-7354 6012l4445 -5879 -535 -405c-315,-238 -611,-396 -885,-473 -272,-76 -541,-70 -806,17 -264,87 -527,254 -796,497 -265,243 -553,566 -856,968l-1048 1386c-306,405 -539,770 -702,1093 -161,325 -248,621 -256,896 -9,274 59,530 205,772 146,239 373,477 680,709l554 419z"/>
  <path class="fil2 str1" d="M91519 172476l18013 -46890 6682 0 19193 46890 -7075 0 -5469 -14203 -19608 0 -5142 14203 -6594 0zm13526 -19258l15907 0 -4902 -12981c-1485,-3941 -2598,-7183 -3319,-9727 -600,3013 -1441,5994 -2533,8963l-5153 13745z"/>
  <path class="fil2 str1" d="M131724 172476l18013 -46890 6682 0 19192 46890 -7074 0 -5469 -14203 -19608 0 -5142 14203 -6594 0zm13526 -19258l15907 0 -4902 -12981c-1485,-3941 -2598,-7183 -3319,-9727 -601,3013 -1441,5994 -2533,8963l-5153 13745z"/>
  <path class="fil4" d="M128789 79318l-1230 5653c5149,-6159 15479,-6319 18174,-15205 194,3530 144,7243 -1610,12233 1370,-1247 3043,-2266 5382,-2785 -2780,3154 -3966,6881 -3594,10520 1413,-1213 3007,-2317 4882,-2513 -5322,6734 -2096,12934 -8037,18183 -17598,13967 -29432,-13687 -13966,-26085z"/>
  <path class="fil5" d="M130671 93835l-753 3724c3152,-3465 9476,-4098 11125,-9097 118,1986 88,4075 -986,6882 838,-702 1863,-1275 3295,-1567 -1702,1774 -2428,3871 -2200,5918 865,-682 1841,-1304 2988,-1414 -3258,3788 -1445,6786 -5082,9739 -4466,2138 -8894,1287 -11129,-433 -3682,-2835 -2509,-9882 2742,-13751z"/>
  <path class="fil6 str2" d="M129231 116056l0 55372c-2873,681 -4609,2401 -5568,4832l20807 -189c-938,-2146 -2868,-3673 -5619,-4688 76,-18733 -90,-36850 -14,-55583 2837,-1283 6324,-3829 7542,-9802 -6934,1781 -16121,2439 -24466,10 298,5334 5011,9194 7319,10047z"/>
  <polygon class="fil7" points="163821,128516 163821,121318 161132,121318 161132,120362 167590,120362 167590,121318 164902,121318 164902,128516 "/>
  <path id="1" class="fil7" d="M168681 128516l0 -8154 1617 0 1929 5772c179,537 307,940 389,1207 93,-296 239,-733 437,-1308l1963 -5672 1444 0 0 8154 -1036 0 0 -6822 -2380 6822 -972 0 -2354 -6947 0 6947 -1036 0z"/>
  <rect class="fil8" width="255789" height="225166"/>
 </g>
</svg>
